<?xml version="1.0" encoding="UTF-8" standalone="no"?>
<svg
   width="113.90249"
   height="153.39101"
   viewBox="904 29 113.90249 153.391"
   version="1.1"
   id="svg791"
   sodipodi:docname="32106e927eacae99f46a0805b363d32b.svg"
   xmlns:inkscape="http://www.inkscape.org/namespaces/inkscape"
   xmlns:sodipodi="http://sodipodi.sourceforge.net/DTD/sodipodi-0.dtd"
   xmlns="http://www.w3.org/2000/svg"
   xmlns:svg="http://www.w3.org/2000/svg">
  <sodipodi:namedview
     id="namedview793"
     pagecolor="#ffffff"
     bordercolor="#666666"
     borderopacity="1.0"
     inkscape:pageshadow="2"
     inkscape:pageopacity="0.0"
     inkscape:pagecheckerboard="0" />
  <g
     data-name="Group 274"
     id="g138"
     transform="translate(-5.1492545e-4)">
    <g
       data-name="Group 263"
       id="g32">
      <path
         d="m 55.035,138.11 h -1.533 c 0.204,-0.221 0.35,-0.726 0.435,-1.52 0.086,-0.79 0.13,-2.488 0.13,-5.095 v -0.92 c 0,-2.84 -0.044,-4.65 -0.13,-5.434 -0.084,-0.783 -0.231,-1.28 -0.435,-1.504 h 1.896 c 0.491,0 1.192,-0.026 2.102,-0.077 a 39.79,39.79 0 0 1 1.988,-0.076 c 1.099,0 1.956,0.242 2.56,0.718 0.606,0.477 0.908,1.148 0.908,2.014 0,0.816 -0.296,1.535 -0.883,2.155 -0.593,0.625 -1.464,1.133 -2.617,1.53 1.341,0.156 2.386,0.572 3.12,1.25 0.732,0.679 1.098,1.56 1.098,2.65 0,1.323 -0.498,2.397 -1.493,3.216 -0.992,0.82 -2.324,1.228 -3.983,1.228 -0.404,0 -0.958,-0.024 -1.658,-0.068 a 28.811,28.811 0 0 0 -1.505,-0.067 z m 0.97,-8.891 v 0.539 h 0.608 c 1.348,0 2.38,-0.266 3.1,-0.796 0.72,-0.53 1.071,-1.283 1.071,-2.273 0,-0.744 -0.27,-1.31 -0.82,-1.69 -0.547,-0.378 -1.365,-0.567 -2.45,-0.567 -0.198,0 -0.403,0.003 -0.626,0.016 -0.212,0.009 -0.439,0.025 -0.675,0.05 -0.072,0.32 -0.126,0.823 -0.159,1.52 -0.032,0.699 -0.05,1.697 -0.05,2.997 v 0.204 z m 0,1.373 v 2.78 c 0,0.823 0.017,1.558 0.053,2.211 0.037,0.651 0.083,1.07 0.134,1.251 0.049,0.187 0.235,0.33 0.547,0.427 0.32,0.106 0.733,0.157 1.247,0.157 1.07,0 1.894,-0.303 2.484,-0.903 0.584,-0.603 0.877,-1.452 0.877,-2.537 0,-1.075 -0.335,-1.906 -1.017,-2.5 -0.677,-0.59 -1.649,-0.886 -2.903,-0.886 h -1.423 z"
         fill-rule="evenodd"
         fill="url(#a)"
         transform="translate(867.058,19.268)"
         data-name="Path 1601"
         id="path2"
         style="fill:url(#a)" />
      <path
         d="m 70.635,138.4 c -2.123,0 -3.76,-0.63 -4.906,-1.882 -1.155,-1.251 -1.725,-3.037 -1.725,-5.356 0,-2.514 0.619,-4.444 1.871,-5.78 1.25,-1.33 3.05,-2 5.411,-2 2.224,0 3.903,0.598 5.028,1.78 1.123,1.19 1.687,2.957 1.687,5.312 0,2.401 -0.67,4.325 -2.006,5.762 -1.336,1.441 -3.12,2.164 -5.36,2.164 z m 0.699,-1.095 c 1.375,0 2.444,-0.528 3.236,-1.591 0.78,-1.064 1.17,-2.542 1.17,-4.436 0,-2.141 -0.422,-3.819 -1.253,-5.045 -0.842,-1.223 -1.987,-1.834 -3.441,-1.834 -1.502,0 -2.668,0.54 -3.508,1.621 -0.835,1.084 -1.258,2.594 -1.258,4.537 0,2.137 0.445,3.797 1.33,4.975 0.888,1.187 2.126,1.773 3.724,1.773 z"
         fill-rule="evenodd"
         fill="url(#b)"
         transform="translate(868.178,19.257)"
         data-name="Path 1602"
         id="path4"
         style="fill:url(#b)" />
      <path
         d="m 84.996,138.416 -5.21,-13.435 -0.047,9.864 v 0.706 c 0,0.685 0.039,1.21 0.12,1.575 0.078,0.37 0.215,0.694 0.397,0.97 h -2.569 c 0.432,-0.376 0.733,-1.574 0.927,-3.599 0.19,-2.024 0.287,-5.116 0.287,-9.286 0,-0.382 -0.043,-0.691 -0.127,-0.924 a 1.827,1.827 0 0 0 -0.435,-0.665 h 2.523 c 0.203,0 0.34,0.029 0.408,0.085 0.066,0.054 0.129,0.162 0.186,0.321 l 4.077,10.908 4.543,-10.794 c 0.082,-0.206 0.174,-0.343 0.271,-0.413 0.095,-0.072 0.26,-0.107 0.482,-0.107 h 2.199 c -0.184,0.249 -0.322,0.65 -0.41,1.187 -0.083,0.54 -0.127,1.317 -0.127,2.341 0,3.778 0.078,6.422 0.238,7.93 0.16,1.513 0.434,2.518 0.821,3.015 h -3.315 c 0.207,-0.326 0.361,-0.721 0.457,-1.207 0.093,-0.478 0.137,-1.17 0.137,-2.064 l -0.009,-0.142 a 161.74,161.74 0 0 1 -0.045,-1.806 l -0.132,-7.895 z"
         fill-rule="evenodd"
         fill="url(#c)"
         transform="translate(869.638,19.282)"
         data-name="Path 1603"
         id="path6"
         style="fill:url(#c)" />
      <path
         d="m 95.109,138.11 h -1.532 c 0.207,-0.221 0.349,-0.726 0.43,-1.52 0.089,-0.79 0.129,-2.488 0.129,-5.092 v -0.923 c 0,-2.84 -0.04,-4.65 -0.13,-5.434 -0.08,-0.783 -0.222,-1.28 -0.429,-1.504 h 1.895 c 0.488,0 1.193,-0.026 2.1,-0.077 0.91,-0.05 1.572,-0.076 1.99,-0.076 1.102,0 1.955,0.242 2.559,0.718 0.61,0.477 0.913,1.148 0.913,2.014 0,0.816 -0.295,1.535 -0.89,2.155 -0.589,0.625 -1.46,1.133 -2.619,1.53 1.348,0.156 2.39,0.572 3.122,1.25 0.735,0.679 1.103,1.56 1.103,2.65 0,1.323 -0.498,2.397 -1.494,3.216 -0.994,0.82 -2.321,1.228 -3.983,1.228 -0.406,0 -0.96,-0.024 -1.661,-0.068 a 28.904,28.904 0 0 0 -1.503,-0.067 z m 0.97,-8.891 v 0.539 h 0.606 c 1.35,0 2.382,-0.266 3.103,-0.796 0.715,-0.53 1.072,-1.283 1.072,-2.273 0,-0.744 -0.273,-1.31 -0.818,-1.69 -0.546,-0.378 -1.367,-0.567 -2.457,-0.567 -0.194,0 -0.4,0.003 -0.617,0.016 -0.218,0.009 -0.444,0.025 -0.68,0.05 -0.072,0.32 -0.131,0.823 -0.16,1.52 a 68.092,68.092 0 0 0 -0.049,2.997 z m 0,1.373 v 2.78 c 0,0.823 0.016,1.558 0.053,2.211 0.04,0.651 0.084,1.07 0.134,1.251 0.054,0.187 0.235,0.33 0.55,0.427 0.313,0.106 0.727,0.157 1.244,0.157 1.067,0 1.896,-0.303 2.48,-0.903 0.592,-0.603 0.883,-1.452 0.883,-2.537 0,-1.075 -0.342,-1.906 -1.018,-2.5 -0.684,-0.59 -1.649,-0.886 -2.905,-0.886 h -1.42 z"
         fill-rule="evenodd"
         fill="url(#d)"
         transform="translate(871.333,19.268)"
         data-name="Path 1604"
         id="path8"
         style="fill:url(#d)" />
      <path
         d="m 102.311,138.095 c 0.685,-0.823 1.371,-1.851 2.063,-3.092 0.69,-1.246 1.418,-2.762 2.182,-4.555 a 63.67,63.67 0 0 0 1.58,-4.002 c 0.42,-1.177 0.624,-1.881 0.624,-2.12 0,-0.112 -0.01,-0.231 -0.046,-0.345 a 2.378,2.378 0 0 0 -0.13,-0.359 h 2.803 c 1.092,3.648 2.125,6.723 3.096,9.228 0.965,2.504 1.803,4.257 2.502,5.245 h -2.472 l -2.268,-6.27 h -5.273 l -0.968,2.367 -0.019,0.058 c -0.606,1.447 -0.906,2.497 -0.906,3.154 0,0.105 0.008,0.213 0.03,0.32 0.015,0.122 0.044,0.243 0.077,0.371 z m 5.024,-7.107 h 4.568 l -2.127,-5.832 -2.44,5.832 z"
         fill-rule="evenodd"
         fill="url(#e)"
         transform="translate(872.265,19.282)"
         data-name="Path 1605"
         id="path10"
         style="fill:url(#e)" />
      <path
         d="m 117.515,138.095 c 0.188,-0.344 0.33,-0.8 0.435,-1.362 0.097,-0.57 0.145,-1.243 0.145,-2.022 0,-1.402 -0.186,-2.73 -0.569,-3.984 -0.386,-1.25 -1.066,-2.727 -2.041,-4.412 a 18.83,18.83 0 0 0 -1.072,-1.645 c -0.345,-0.465 -0.653,-0.812 -0.926,-1.048 h 1.83 c 0.462,0 0.814,0.094 1.044,0.271 0.237,0.182 0.493,0.55 0.764,1.108 a 32.9,32.9 0 0 1 1.186,2.752 c 0.374,0.953 0.77,2.073 1.184,3.365 l 1.917,-3.516 0.148,-0.264 c 0.748,-1.404 1.122,-2.326 1.122,-2.766 0,-0.174 -0.034,-0.334 -0.106,-0.492 a 1.774,1.774 0 0 0 -0.299,-0.458 h 2.886 a 165.946,165.946 0 0 0 -2.662,4.063 c -0.697,1.096 -1.203,1.95 -1.516,2.55 a 8.882,8.882 0 0 0 -0.75,2.146 c -0.148,0.74 -0.217,1.877 -0.217,3.413 0,0.442 0.036,0.848 0.104,1.23 0.074,0.38 0.191,0.74 0.342,1.071 z"
         fill-rule="evenodd"
         fill="url(#f)"
         transform="translate(873.458,19.282)"
         data-name="Path 1606"
         id="path12"
         style="fill:url(#f)" />
      <path
         d="m 52.851,150.141 c 0.157,-0.16 0.265,-0.553 0.329,-1.148 0.063,-0.602 0.095,-1.892 0.095,-3.862 v -0.7 c 0,-2.151 -0.032,-3.524 -0.095,-4.114 -0.064,-0.593 -0.172,-0.971 -0.329,-1.14 h 1.242 c 0.505,0 1.173,-0.036 2.02,-0.101 0.833,-0.066 1.428,-0.101 1.783,-0.101 1.569,0 2.8,0.465 3.697,1.384 0.896,0.922 1.347,2.186 1.347,3.795 0,1.873 -0.54,3.352 -1.613,4.44 -1.078,1.088 -2.534,1.63 -4.374,1.63 -0.408,0 -0.94,-0.016 -1.59,-0.04 a 37.037,37.037 0 0 0 -1.348,-0.043 z m 2.032,-10.262 c -0.048,0.257 -0.082,0.672 -0.102,1.233 -0.022,0.56 -0.038,1.322 -0.038,2.29 v 2.502 c 0,0.733 0.008,1.346 0.025,1.85 0.013,0.498 0.033,0.84 0.064,1.04 0.043,0.28 0.2,0.471 0.461,0.57 0.268,0.1 0.774,0.143 1.525,0.143 1.394,0 2.468,-0.42 3.23,-1.255 0.766,-0.84 1.145,-2.02 1.145,-3.544 0,-1.6 -0.4,-2.831 -1.198,-3.694 -0.804,-0.874 -1.945,-1.303 -3.42,-1.303 a 9.45,9.45 0 0 0 -0.874,0.04 c -0.28,0.03 -0.553,0.074 -0.818,0.128 z"
         fill-rule="evenodd"
         fill="url(#g)"
         transform="translate(866.989,20.92)"
         data-name="Path 1607"
         id="path14"
         style="fill:url(#g)" />
      <path
         d="m 63.625,139.17 c 0.664,0 1.409,-0.024 2.237,-0.062 0.825,-0.035 1.314,-0.058 1.478,-0.058 0.861,0 1.514,0.186 1.961,0.557 0.443,0.37 0.666,0.916 0.666,1.632 0,0.705 -0.215,1.326 -0.657,1.878 -0.442,0.541 -1.086,1 -1.939,1.356 l 2.45,3.407 c 0.401,0.56 0.777,1.033 1.124,1.41 0.338,0.372 0.648,0.658 0.918,0.843 h -1.617 c -0.219,0 -0.386,-0.026 -0.502,-0.085 -0.11,-0.055 -0.234,-0.178 -0.36,-0.357 l -2.926,-4.106 c -0.208,-0.304 -0.406,-0.493 -0.59,-0.598 -0.187,-0.093 -0.42,-0.138 -0.71,-0.138 h -0.135 v 1.047 c 0,1.673 0.035,2.755 0.096,3.235 0.066,0.495 0.176,0.819 0.334,1.002 h -2.326 c 0.156,-0.16 0.267,-0.553 0.334,-1.148 0.062,-0.602 0.094,-1.892 0.094,-3.862 v -0.7 c 0,-2.151 -0.032,-3.524 -0.094,-4.114 -0.067,-0.593 -0.178,-0.971 -0.334,-1.14 h 0.498 z m 1.398,5.01 c 0.106,0.02 0.209,0.043 0.325,0.05 0.117,0.01 0.247,0.017 0.394,0.017 0.831,0 1.469,-0.22 1.914,-0.649 0.448,-0.437 0.667,-1.058 0.667,-1.862 0,-0.674 -0.165,-1.176 -0.506,-1.507 -0.343,-0.327 -0.86,-0.49 -1.557,-0.49 -0.27,0 -0.484,0 -0.64,0.01 -0.152,0.01 -0.294,0.021 -0.435,0.04 -0.056,0.243 -0.096,0.631 -0.124,1.163 a 47.215,47.215 0 0 0 -0.038,2.26 z"
         fill-rule="evenodd"
         fill="url(#h)"
         transform="translate(868.085,20.928)"
         data-name="Path 1608"
         id="path16"
         style="fill:url(#h)" />
      <path
         d="m 72.637,150.122 c 0.144,-0.263 0.257,-0.611 0.329,-1.035 0.076,-0.421 0.114,-0.937 0.114,-1.526 0,-1.065 -0.144,-2.07 -0.435,-3.02 -0.287,-0.947 -0.805,-2.067 -1.546,-3.349 a 14.695,14.695 0 0 0 -0.805,-1.238 c -0.265,-0.356 -0.494,-0.615 -0.708,-0.796 h 1.39 c 0.35,0 0.614,0.066 0.795,0.204 0.174,0.14 0.365,0.415 0.574,0.84 0.32,0.664 0.627,1.362 0.903,2.083 0.278,0.722 0.574,1.574 0.89,2.552 l 1.455,-2.666 0.11,-0.199 c 0.565,-1.062 0.855,-1.762 0.855,-2.096 a 0.947,0.947 0 0 0 -0.083,-0.372 1.311,1.311 0 0 0 -0.23,-0.346 h 2.187 a 178.375,178.375 0 0 0 -2.019,3.078 32.458,32.458 0 0 0 -1.145,1.933 6.516,6.516 0 0 0 -0.567,1.627 c -0.112,0.557 -0.166,1.419 -0.166,2.577 0,0.341 0.022,0.648 0.082,0.931 0.055,0.293 0.144,0.561 0.257,0.818 z"
         fill-rule="evenodd"
         fill="url(#i)"
         transform="translate(868.774,20.94)"
         data-name="Path 1609"
         id="path18"
         style="fill:url(#i)" />
      <path
         d="m 83.544,144.207 c 0.35,0.026 0.667,0.037 0.951,0.046 0.283,0.01 0.547,0.013 0.773,0.013 0.441,0 0.852,-0.018 1.245,-0.056 0.393,-0.033 0.775,-0.084 1.159,-0.152 -0.238,0.368 -0.58,0.623 -1.033,0.771 -0.455,0.144 -1.27,0.223 -2.463,0.223 h -0.632 v 0.837 c 0,1.674 0.034,2.755 0.097,3.235 0.06,0.495 0.173,0.82 0.33,1.003 h -2.322 c 0.154,-0.16 0.264,-0.553 0.329,-1.149 0.065,-0.602 0.096,-1.891 0.096,-3.861 v -0.7 c 0,-2.152 -0.031,-3.524 -0.096,-4.114 -0.065,-0.593 -0.175,-0.972 -0.329,-1.14 h 1.176 c 0.234,0 0.7,-0.009 1.404,-0.023 0.7,-0.022 1.29,-0.028 1.76,-0.028 0.38,0 0.72,0.006 1.029,0.028 0.305,0.014 0.58,0.04 0.82,0.07 l 0.067,1.423 c -0.17,-0.315 -0.465,-0.53 -0.89,-0.662 -0.428,-0.126 -1.11,-0.19 -2.05,-0.19 -0.214,0 -0.422,0.002 -0.627,0.01 -0.208,0.012 -0.42,0.024 -0.64,0.04 -0.05,0.256 -0.091,0.658 -0.116,1.203 -0.027,0.55 -0.038,1.334 -0.038,2.354 v 0.82 z"
         fill-rule="evenodd"
         fill="url(#j)"
         transform="translate(870.06,20.935)"
         data-name="Path 1610"
         id="path20"
         style="fill:url(#j)" />
      <path
         d="m 88.632,139.17 c 0.665,0 1.414,-0.024 2.236,-0.062 0.826,-0.035 1.318,-0.058 1.48,-0.058 0.862,0 1.517,0.186 1.962,0.557 0.445,0.37 0.669,0.916 0.669,1.632 0,0.705 -0.222,1.326 -0.657,1.878 -0.445,0.541 -1.088,1 -1.944,1.356 l 2.45,3.407 c 0.405,0.56 0.78,1.033 1.127,1.41 0.336,0.372 0.643,0.658 0.92,0.843 h -1.622 c -0.216,0 -0.384,-0.026 -0.498,-0.085 -0.112,-0.055 -0.235,-0.178 -0.359,-0.357 l -2.927,-4.106 c -0.209,-0.304 -0.407,-0.493 -0.595,-0.598 -0.177,-0.093 -0.42,-0.138 -0.707,-0.138 h -0.133 v 1.047 c 0,1.673 0.034,2.755 0.096,3.235 0.062,0.495 0.172,0.819 0.33,1.002 h -2.323 c 0.156,-0.16 0.271,-0.553 0.33,-1.148 0.064,-0.602 0.1,-1.892 0.1,-3.862 v -0.7 c 0,-2.151 -0.036,-3.524 -0.1,-4.114 -0.059,-0.593 -0.174,-0.971 -0.33,-1.14 h 0.495 z m 1.402,5.01 c 0.103,0.02 0.206,0.043 0.325,0.05 0.116,0.01 0.246,0.017 0.39,0.017 0.834,0 1.474,-0.22 1.917,-0.649 0.446,-0.437 0.67,-1.058 0.67,-1.862 0,-0.674 -0.176,-1.176 -0.513,-1.507 -0.344,-0.327 -0.86,-0.49 -1.552,-0.49 -0.275,0 -0.486,0 -0.642,0.01 a 7.38,7.38 0 0 0 -0.437,0.04 c -0.055,0.243 -0.098,0.631 -0.122,1.163 a 52.835,52.835 0 0 0 -0.036,2.26 z"
         fill-rule="evenodd"
         fill="url(#k)"
         transform="translate(870.753,20.928)"
         data-name="Path 1611"
         id="path22"
         style="fill:url(#k)" />
      <path
         d="m 103.373,150.122 0.052,-1.611 a 3.56,3.56 0 0 1 -1.455,1.348 c -0.61,0.32 -1.304,0.47 -2.086,0.47 -1.205,0 -2.091,-0.291 -2.649,-0.878 -0.56,-0.586 -0.84,-1.516 -0.84,-2.786 0,-0.34 0.004,-0.737 0.01,-1.191 0.005,-0.45 0.01,-0.73 0.01,-0.839 0,-2.245 -0.035,-3.684 -0.1,-4.295 -0.065,-0.619 -0.171,-1.01 -0.327,-1.182 h 2.32 c -0.166,0.16 -0.285,0.588 -0.35,1.29 -0.06,0.706 -0.094,2.254 -0.094,4.653 0,1.748 0.201,2.91 0.59,3.464 0.397,0.554 1.094,0.836 2.086,0.836 1.01,0 1.73,-0.341 2.157,-1.04 0.424,-0.697 0.642,-1.94 0.642,-3.726 0,-2.255 -0.034,-3.69 -0.091,-4.304 -0.065,-0.616 -0.18,-1.005 -0.334,-1.173 h 2.346 c -0.172,0.168 -0.285,0.557 -0.352,1.173 -0.062,0.613 -0.092,2.049 -0.092,4.304 0,2.255 0.03,3.694 0.092,4.31 0.067,0.624 0.18,1.016 0.352,1.177 z"
         fill-rule="evenodd"
         fill="url(#l)"
         transform="translate(871.59,20.94)"
         data-name="Path 1612"
         id="path24"
         style="fill:url(#l)" />
      <path
         d="m 105.835,150.122 c 0.154,-0.16 0.266,-0.553 0.33,-1.149 0.062,-0.602 0.097,-1.891 0.097,-3.861 v -0.7 c 0,-2.152 -0.035,-3.524 -0.096,-4.114 -0.065,-0.593 -0.177,-0.972 -0.331,-1.14 h 2.323 c -0.155,0.16 -0.268,0.533 -0.332,1.109 -0.066,0.579 -0.097,1.814 -0.097,3.7 v 1.331 c 0,1.889 0.03,3.124 0.097,3.708 0.064,0.588 0.177,0.958 0.332,1.116 z"
         fill-rule="evenodd"
         fill="url(#m)"
         transform="translate(872.641,20.94)"
         data-name="Path 1613"
         id="path26"
         style="fill:url(#m)" />
      <path
         d="m 111.967,150.122 c 0.156,-0.16 0.264,-0.537 0.33,-1.116 0.067,-0.584 0.098,-1.819 0.098,-3.708 v -0.663 a 101.012,101.012 0 0 0 -0.1,-4.547 h -1.817 c -0.4,0 -0.722,0.028 -0.974,0.097 -0.257,0.072 -0.49,0.174 -0.717,0.326 l 0.407,-1.353 h 8.688 c -0.198,0.315 -0.436,0.537 -0.722,0.674 -0.282,0.134 -0.656,0.205 -1.122,0.205 l -2.085,0.014 a 135.213,135.213 0 0 0 -0.09,4.817 c 0,2.159 0.032,3.532 0.099,4.117 0.06,0.594 0.171,0.976 0.33,1.137 z"
         fill-rule="evenodd"
         fill="url(#n)"
         transform="translate(872.956,20.94)"
         data-name="Path 1614"
         id="path28"
         style="fill:url(#n)" />
      <path
         d="m 117.067,149.699 v -1.862 c 0.333,0.561 0.765,0.992 1.296,1.297 a 3.662,3.662 0 0 0 1.784,0.443 c 0.662,0 1.202,-0.197 1.615,-0.584 0.411,-0.39 0.618,-0.892 0.618,-1.499 0,-0.47 -0.137,-0.888 -0.414,-1.25 -0.279,-0.363 -0.748,-0.72 -1.413,-1.075 l -0.223,-0.126 c -1.93,-1.056 -2.89,-2.12 -2.89,-3.207 0,-0.841 0.329,-1.529 0.984,-2.062 0.66,-0.53 1.514,-0.799 2.573,-0.799 0.34,0 0.71,0.015 1.115,0.035 0.403,0.023 0.638,0.035 0.705,0.035 0.026,0 0.072,0 0.136,0.009 0.075,0.004 0.13,0.004 0.18,0.004 h 0.435 v 1.784 a 2.077,2.077 0 0 0 -0.907,-0.83 c -0.385,-0.187 -0.837,-0.286 -1.352,-0.286 -0.716,0 -1.278,0.158 -1.688,0.47 -0.416,0.31 -0.62,0.733 -0.62,1.261 0,0.785 0.756,1.572 2.266,2.372 l 0.107,0.056 c 0.945,0.497 1.624,0.994 2.03,1.482 0.404,0.487 0.606,1.043 0.606,1.661 0,0.918 -0.375,1.7 -1.128,2.352 -0.754,0.65 -1.685,0.968 -2.786,0.968 -0.44,0 -0.904,-0.047 -1.402,-0.153 a 11.631,11.631 0 0 1 -1.627,-0.496 z"
         fill-rule="evenodd"
         fill="url(#o)"
         transform="translate(873.84,20.92)"
         data-name="Path 1615"
         id="path30"
         style="fill:url(#o)" />
    </g>
    <g
       data-name="Group 264"
       id="g38">
      <path
         d="m 107.039,160.414 c -1.999,0 -4.044,-0.24 -6.079,-0.714 -2.767,-0.646 -5.595,-2.003 -8.409,-4.032 l -0.065,-0.046 -0.509,-1.333 0.728,0.526 c 1.864,1.341 3.902,2.236 6.062,2.657 1.522,0.3 3.12,0.45 4.747,0.45 0.706,0 1.432,-0.028 2.158,-0.083 2.416,-0.185 4.964,-0.605 7.571,-1.248 a 165.427,165.427 0 0 0 8.07,-2.202 c 2.746,-0.828 5.516,-1.661 8.324,-2.493 a 88.147,88.147 0 0 1 8.37,-2.063 l 3.047,-0.536 a 34.159,34.159 0 0 1 4.2,-0.415 l 0.093,-0.002 1.393,1.013 h -0.826 c -0.563,0 -1.083,0.026 -1.59,0.08 -0.507,0.052 -1.023,0.12 -1.54,0.204 l -1.26,0.163 a 43.637,43.637 0 0 0 -8.035,2.215 933.359,933.359 0 0 0 -8.041,3.107 173.023,173.023 0 0 1 -8.087,2.94 34.893,34.893 0 0 1 -8.156,1.719 25.21,25.21 0 0 1 -2.166,0.093 z"
         fill-rule="evenodd"
         fill="url(#p)"
         transform="translate(871.163,21.977)"
         data-name="Path 1616"
         id="path34"
         style="fill:url(#p)" />
      <path
         d="m 141.047,149.536 a 33.828,33.828 0 0 1 4.162,-0.411 l 0.65,0.473 c -0.56,0 -1.096,0.026 -1.619,0.081 a 26.47,26.47 0 0 0 -1.553,0.206 l -1.252,0.162 a 43.646,43.646 0 0 0 -8.097,2.231 919.547,919.547 0 0 0 -8.044,3.108 171.659,171.659 0 0 1 -8.073,2.934 34.43,34.43 0 0 1 -8.095,1.707 c -2.693,0.232 -5.415,0.024 -8.16,-0.615 -2.75,-0.642 -5.518,-1.972 -8.313,-3.988 l -0.159,-0.417 c 1.898,1.367 3.954,2.27 6.166,2.703 2.215,0.434 4.542,0.558 6.978,0.37 2.438,-0.187 4.98,-0.604 7.615,-1.254 a 165.15,165.15 0 0 0 8.082,-2.206 c 2.746,-0.828 5.516,-1.66 8.324,-2.494 a 87.525,87.525 0 0 1 8.344,-2.055 z"
         fill-rule="evenodd"
         fill="url(#q)"
         transform="translate(871.218,22.003)"
         data-name="Path 1617"
         id="path36"
         style="fill:url(#q)" />
    </g>
    <g
       data-name="Group 266"
       id="g70">
      <g
         data-name="Group 265"
         id="g68">
        <path
           d="m 51.698,118.02 c -6.81,0 -11.279,-5.145 -12.55,-9.923 -1.927,-7.244 1.08,-10.103 3.942,-11.228 a 5.531,5.531 0 0 1 2.027,-0.402 c 3.3,0 5.791,3.376 5.963,6.407 0.128,2.28 -1.034,3.783 -3.109,4.018 -0.113,0.013 -0.222,0.02 -0.328,0.02 -2.76,0 -3.163,-4.011 -3.179,-4.183 l -0.086,-0.934 0.568,0.748 c 0.009,0.011 0.91,1.184 1.928,1.486 0.172,0.05 0.355,0.077 0.54,0.077 0.827,0 1.71,-0.517 1.71,-1.964 0,-1.447 -1.492,-2.715 -3.193,-2.715 -1.118,0 -2.237,0.511 -3.236,1.478 -1.117,1.076 -1.844,3.967 -1.073,6.759 0.868,3.145 3.373,5.35 7.055,6.206 a 7.643,7.643 0 0 0 1.739,0.202 c 3.035,-0.001 5.965,-1.824 7.876,-4.89 -3.235,-3.174 -6.14,-7.327 -8.638,-12.35 -4.61,-9.237 -3.516,-24.03 2.493,-33.674 l 0.48,0.235 c -0.106,0.287 -10.35,28.708 9.186,41.093 1.339,-3.474 2.688,-9.614 2.607,-13.847 -0.039,-2.07 -0.238,-4.526 -0.45,-7.125 -0.929,-11.432 -2.202,-27.088 9.432,-28.805 l 0.766,-0.112 -0.532,0.562 c -0.057,0.061 -5.648,6.172 -3.102,18.819 0.218,0.032 0.642,0.078 1.231,0.078 1.713,0 5.207,-0.407 9.363,-3.14 3.747,-2.465 5.394,-6.644 4.194,-10.648 -1.065,-3.557 -4.688,-7.358 -11.661,-7.358 -0.86,0 -1.758,0.06 -2.67,0.178 -4.895,0.632 -9.053,3.284 -11.122,7.096 -2.181,4.02 -1.964,8.998 0.629,14.397 l -0.397,0.335 c -0.215,-0.153 -5.24,-3.795 -5.465,-9.45 -0.154,-3.857 1.98,-7.67 6.343,-11.332 6.584,-5.527 12.883,-6.687 17.008,-6.687 7.863,0 14.543,4.176 16.246,10.155 0.912,3.213 0.442,6.576 -1.362,9.727 -2.054,3.589 -5.515,6.289 -8.13,7.325 1.674,0.477 5.261,1.872 8.255,5.576 l 0.102,0.127 -0.064,0.148 c -3.41,8.018 -6.18,22.592 -2.508,29.105 l 0.101,0.179 -0.149,0.145 c -4.391,4.264 -9.956,6.611 -15.668,6.611 h -0.002 c -3.93,0 -7.743,-1.108 -11.335,-3.293 a 23.91,23.91 0 0 1 -6.026,3.562 c -1.944,0.8 -3.878,1.205 -5.75,1.205 z m 16.953,-10.366 c 1.87,0.655 3.702,0.987 5.45,0.987 4.87,0 9.077,-2.68 11.25,-7.171 2.651,-5.476 1.728,-12.346 -2.35,-17.503 -3.183,-4.034 -6.996,-4.638 -8.986,-4.638 -0.612,0 -1.213,0.055 -1.79,0.162 0.359,2.135 2.523,16.755 -3.574,28.163 z"
           fill-rule="evenodd"
           fill="url(#r)"
           transform="translate(865.462,11.156)"
           data-name="Path 1618"
           id="path40"
           style="fill:url(#r)" />
        <path
           d="M 90.264,109.715 C 86.584,103.185 89.262,88.6 92.761,80.374 88.808,75.482 83.731,74.671 83.731,74.671 88.11,73.533 96.409,66.311 93.948,57.649 91.272,48.251 75.166,42.527 61.125,54.314 47.594,65.674 60.23,74.671 60.23,74.671 54.181,62.084 61.949,53.955 70.93,52.795 85.917,50.847 90.322,65.145 81.248,71.115 75.023,75.209 70.281,74.186 70.281,74.186 67.583,61.111 73.414,54.95 73.414,54.95 59.478,57.005 64.45,79.265 64.662,90.607 c 0.08,4.164 -1.266,10.587 -2.744,14.252 -20.324,-12.554 -9.57,-41.586 -9.57,-41.586 -6.158,9.887 -6.916,24.526 -2.48,33.414 2.65,5.327 5.618,9.405 8.739,12.426 -2.271,3.78 -6.13,5.898 -10.017,4.994 -9.06,-2.109 -8.43,-11.182 -6.109,-13.421 3.238,-3.133 6.886,-0.94 6.886,1.43 0,1.986 -1.542,2.455 -2.595,2.144 -1.12,-0.33 -2.066,-1.581 -2.066,-1.581 0,0 0.391,4.24 3.209,3.92 5.952,-0.674 1.84,-12.105 -4.753,-9.505 -2.861,1.123 -5.62,3.994 -3.78,10.907 1.657,6.235 8.637,12.365 17.936,8.54 2.385,-0.983 4.396,-2.225 6.106,-3.645 9.759,6.04 20.184,3.282 26.84,-3.18 z m -22.025,-1.94 c 6.785,-12.364 3.649,-28.521 3.649,-28.521 3.164,-0.682 7.791,0.074 11.297,4.52 9.5,12.013 0.62,29.726 -14.946,24.001 z"
           fill-rule="evenodd"
           fill="url(#s)"
           transform="translate(865.488,11.182)"
           data-name="Path 1619"
           id="path42"
           style="fill:url(#s)" />
        <path
           d="m 46.027,71.814 c 0.011,-0.09 1.14,-9.162 6.979,-18.7 5.392,-8.809 16.015,-19.837 36,-22.353 a 24.87,24.87 0 0 1 3.099,-0.201 c 8.442,0 12.346,4.6 13.124,8.537 0.776,3.93 -1.243,7.506 -5.143,9.11 -1.083,0.444 -2.17,0.67 -3.232,0.67 -3.847,0 -6.556,-2.853 -7.533,-5.682 -0.904,-2.61 -0.353,-5.103 1.434,-6.506 1.068,-0.84 2.116,-1.266 3.113,-1.266 1.447,0 2.459,0.883 3.052,1.622 1.006,1.255 1.445,2.855 1.275,3.619 l -0.093,0.418 -0.336,-0.266 c -0.018,-0.014 -1.757,-1.381 -3.189,-1.381 -0.997,0 -1.586,0.676 -1.798,2.065 -0.117,0.768 0.059,1.43 0.52,1.967 0.603,0.7 1.668,1.12 2.85,1.12 1.29,0 2.51,-0.489 3.345,-1.339 0.844,-0.858 1.275,-2.066 1.25,-3.494 -0.085,-4.715 -4.37,-5.706 -7.948,-5.706 -6.19,0 -14.983,2.933 -24.127,8.046 C 49.906,52.59 46.59,71.697 46.559,71.888 Z"
           fill-rule="evenodd"
           fill="url(#t)"
           transform="translate(866.26,9.354)"
           data-name="Path 1620"
           id="path44"
           style="fill:url(#t)" />
        <path
           d="m 68.511,41.833 c 17.25,-9.644 32.313,-11.033 32.477,-2.109 0.116,6.69 -9.2,6.315 -8.5,1.71 0.703,-4.604 5.42,-0.855 5.42,-0.855 0.342,-1.539 -2.293,-7.414 -7.014,-3.705 -4.79,3.762 0.855,14.434 9.064,11.058 9.537,-3.92 5.733,-19.031 -10.944,-16.93 C 50.53,35.846 46.268,71.82 46.268,71.82 c 0,0 3.15,-19.305 22.243,-29.986 z"
           fill-rule="evenodd"
           fill="url(#u)"
           transform="translate(866.286,9.38)"
           data-name="Path 1621"
           id="path46"
           style="fill:url(#u)" />
        <path
           d="m 85.25,120.304 c -11.879,-0.001 -22.595,-9.24 -22.701,-9.333 l 0.303,-0.439 c 6.655,3.561 13.218,5.367 19.509,5.367 14.997,0 23.66,-10.335 23.746,-10.44 l 0.443,0.302 c -5.37,9.65 -12.537,14.543 -21.3,14.543 z"
           fill-rule="evenodd"
           fill="url(#v)"
           transform="translate(868.023,17.345)"
           data-name="Path 1622"
           id="path48"
           style="fill:url(#v)" />
        <path
           d="m 106.298,105.614 c 0,0 -16.23,19.783 -43.589,5.138 0,0 27.41,23.94 43.589,-5.138 z"
           fill-rule="evenodd"
           fill="url(#w)"
           transform="translate(868.04,17.361)"
           data-name="Path 1623"
           id="path50"
           style="fill:url(#w)" />
        <path
           d="m 92.537,127.511 c -0.134,0 -0.204,-0.003 -0.204,-0.003 l -0.066,-0.526 c 20.846,-6.333 21.935,-34.557 21.692,-44.078 -0.94,7.447 -3.42,24.642 -6.434,25.962 a 1.945,1.945 0 0 1 -0.784,0.174 c -2.43,0 -3.543,-5.18 -3.979,-8.134 -0.777,4.109 -3.25,13.388 -9.749,13.459 l -0.093,0.001 c -2.62,0 -4.602,-1.222 -5.894,-3.629 -4.28,-7.982 0.37,-26.922 4.552,-33.22 1.942,-2.927 3.968,-4.411 6.022,-4.411 1.592,0 2.797,0.894 3.468,1.549 -3.413,-28.192 2.87,-35.534 8.778,-36.708 a 9.472,9.472 0 0 1 1.841,-0.179 c 6.305,0 11.906,5.926 12.142,6.179 l -0.387,0.373 c -1.102,-1.112 -2.562,-1.7 -4.221,-1.7 -3.267,0 -7.692,2.52 -9.686,8.054 -2.877,7.983 -4.477,25.369 -3.804,41.34 0.359,8.505 1.322,8.935 1.51,8.935 0.542,0 1.614,-2.338 2.535,-6.67 0.415,-1.955 0.855,-5.592 1.364,-9.806 1.124,-9.32 2.664,-22.086 5.322,-28.189 4.79,-11.024 11.752,-12.67 15.476,-12.67 5.523,0 9.962,3.253 11.91,6.477 1.737,2.874 2.159,6 1.158,8.577 -0.876,2.256 -2.74,3.905 -5.249,4.643 a 7.495,7.495 0 0 1 -2.108,0.32 h -0.001 c -2.126,0 -3.922,-1.058 -4.928,-2.901 -1.055,-1.934 -0.978,-4.359 0.195,-6.18 1.017,-1.576 2.405,-2.48 3.807,-2.48 0.566,0 1.1,0.155 1.546,0.446 1.135,0.747 1.52,2.437 1.535,2.509 l 0.143,0.648 -0.555,-0.366 c -0.437,-0.291 -0.868,-0.438 -1.277,-0.438 -0.642,0 -1.089,0.357 -1.352,0.656 a 2.838,2.838 0 0 0 -0.653,2.148 c 0.162,1.255 1.582,2.356 3.036,2.356 0.753,0 1.847,-0.281 2.79,-1.622 0.96,-1.368 0.89,-3.666 -0.176,-5.718 -0.687,-1.32 -2.793,-4.392 -7.522,-4.392 -1.281,0 -2.654,0.238 -4.077,0.707 -9.403,3.102 -8.206,24.954 -8.009,27.778 a 21.82,21.82 0 0 1 4.009,-0.39 c 3.794,0 6.993,1.178 8.777,3.232 1.194,1.374 1.69,3.046 1.437,4.83 -0.463,3.29 -2.79,5.726 -5.535,5.79 l -0.218,0.002 c -4.693,0 -6.87,-3.565 -6.96,-3.716 l -0.26,-0.435 0.506,0.029 c 0.005,0 0.208,0.012 0.538,0.012 1.033,0 3.543,-0.119 4.538,-1.213 0.99,-1.081 1.281,-2.25 0.823,-3.29 -0.59,-1.338 -2.343,-2.237 -4.361,-2.237 -1.044,0 -2.102,0.222 -3.148,0.664 -2.519,46.116 -26.975,47.451 -29.76,47.451 z m 7.036,-50.289 c -1.646,0 -4.34,5.497 -6.365,17.567 -0.674,4.02 -0.33,7.302 0.919,8.778 0.427,0.506 0.93,0.761 1.491,0.761 1.1,0 2.36,-1.007 3.459,-2.76 3.427,-5.48 2.786,-17.414 2.164,-21.142 -0.342,-2.036 -0.95,-3.204 -1.668,-3.204 z"
           fill-rule="evenodd"
           fill="url(#x)"
           transform="translate(870.453,10.123)"
           data-name="Path 1624"
           id="path52"
           style="fill:url(#x)" />
        <path
           d="m 143.592,50.204 c -4.307,-7.128 -19.09,-11.831 -26.91,6.161 -3.844,8.833 -5.333,31.662 -6.668,37.944 -1.336,6.278 -3.946,12.657 -4.577,-2.31 -0.63,-14.965 0.755,-32.937 3.82,-41.441 2.772,-7.694 10.49,-10.346 14.35,-6.454 0,0 -6.811,-7.3 -13.733,-5.92 -5.216,1.038 -12.243,7.275 -8.459,37.274 0,0 -4.227,-5.973 -9.639,2.182 -5.412,8.15 -11.272,36.569 1.209,36.43 8.029,-0.087 9.787,-15.122 9.787,-15.122 0,0 1.018,11.223 4.62,9.646 3.6,-1.578 6.65,-28.888 6.65,-28.888 0,0 3.83,39.744 -21.721,47.507 0,0 27.098,1.265 29.692,-47.36 5.512,-2.436 10.541,1.508 7.144,5.225 -1.38,1.519 -5.29,1.289 -5.29,1.289 0,0 2.2,3.695 6.94,3.582 2.804,-0.065 4.858,-2.589 5.276,-5.558 0.736,-5.188 -5.229,-9.112 -14.203,-7.314 0,0 -2.155,-24.948 8.17,-28.354 10.322,-3.405 14.651,6.152 12.08,9.811 -2.278,3.24 -6.026,1.355 -6.313,-0.852 -0.242,-1.836 1.446,-4.118 3.698,-2.626 0,0 -0.363,-1.647 -1.42,-2.342 -1.268,-0.832 -3.42,-0.459 -4.98,1.955 -2.554,3.968 0.56,10.12 6.54,8.359 5.334,-1.57 7.297,-7.267 3.937,-12.824 z m -44.313,51.48 c -3.572,5.704 -7.989,2.74 -6.362,-6.966 2.986,-17.798 7.363,-21.527 8.565,-14.36 0.547,3.29 1.368,15.619 -2.203,21.326 z"
           fill-rule="evenodd"
           fill="url(#y)"
           transform="translate(870.478,10.149)"
           data-name="Path 1625"
           id="path54"
           style="fill:url(#y)" />
        <path
           d="m 96.607,122.035 c 10.126,-3.71 19.775,-10.246 26.474,-17.928 7.754,-8.887 12.58,-19.816 12.629,-19.926 l 0.505,0.177 c -4.681,17.718 -15.162,27.16 -23.13,31.96 -8.636,5.203 -16.275,6.226 -16.35,6.236 z"
           fill-rule="evenodd"
           fill="url(#z)"
           transform="translate(871.657,15.075)"
           data-name="Path 1626"
           id="path56"
           style="fill:url(#z)" />
        <path
           d="m 96.691,122.277 c 0,0 30.237,-3.867 39.255,-37.999 0,0 -4.798,10.973 -12.67,19.996 -7.245,8.307 -17.18,14.557 -26.585,18.003 z"
           fill-rule="evenodd"
           fill="url(#A)"
           transform="translate(871.666,15.085)"
           data-name="Path 1627"
           id="path58"
           style="fill:url(#A)" />
        <path
           d="m 101.546,39.756 c 0.026,-0.226 0.578,-5.556 -5.409,-7.892 l 0.125,-0.518 c 0.084,0.009 8.547,0.915 15.491,5.465 l -0.212,0.486 a 14.125,14.125 0 0 0 -3.039,-0.329 c -2.127,0 -4.973,0.513 -6.46,2.96 z"
           fill-rule="evenodd"
           fill="url(#B)"
           transform="translate(871.607,9.438)"
           data-name="Path 1628"
           id="path60"
           style="fill:url(#B)" />
        <path
           d="m 101.804,39.762 c 2.738,-4.509 9.793,-2.752 9.793,-2.752 -6.97,-4.567 -15.372,-5.422 -15.372,-5.422 6.264,2.444 5.579,8.174 5.579,8.174 z"
           fill-rule="evenodd"
           fill="url(#C)"
           transform="translate(871.616,9.464)"
           data-name="Path 1629"
           id="path62"
           style="fill:url(#C)" />
        <path
           d="m 133.575,77.68 c -0.02,-0.168 -0.533,-4.126 -5.257,-5.592 l 0.13,-0.52 h 0.002 c 0.313,0 2.697,-0.273 3.076,-9.149 l 0.53,-0.055 c 0.025,0.097 2.5,9.78 2.053,15.308 l -0.534,0.009 z"
           fill-rule="evenodd"
           fill="url(#D)"
           transform="translate(875.04,12.747)"
           data-name="Path 1630"
           id="path64"
           style="fill:url(#D)" />
        <path
           d="m 128.391,71.825 c 4.96,1.54 5.444,5.818 5.444,5.818 0.448,-5.547 -2.048,-15.218 -2.048,-15.218 -0.426,9.957 -3.396,9.4 -3.396,9.4 z"
           fill-rule="evenodd"
           fill="url(#E)"
           transform="translate(875.048,12.754)"
           data-name="Path 1631"
           id="path66"
           style="fill:url(#E)" />
      </g>
    </g>
    <g
       data-name="Group 272"
       id="g82">
      <g
         data-name="Group 270"
         id="g76">
        <g
           data-name="Group 269"
           id="g74">
          <path
             d="m 122.645,119.8 a 4.022,4.022 0 0 1 -4.017,-4.014 4.027,4.027 0 0 1 4.017,-4.022 4.018,4.018 0 0 1 0,8.036 z m 0,-7.514 a 3.502,3.502 0 0 0 -3.495,3.5 3.5,3.5 0 0 0 3.495,3.496 c 1.934,0 3.5,-1.572 3.5,-3.496 0,-1.926 -1.566,-3.5 -3.5,-3.5 z"
             fill-rule="evenodd"
             fill="url(#F)"
             transform="translate(874.006,18.017)"
             data-name="Path 1634"
             id="path72"
             style="fill:url(#F)" />
        </g>
      </g>
      <g
         data-name="Group 271"
         id="g80">
        <path
           d="m 124.096,117.554 h -0.75 l -0.611,-1.618 h -1 v 1.618 h -0.709 v -3.938 h 1.709 c 0.473,0 0.823,0.106 1.046,0.32 0.224,0.217 0.336,0.491 0.336,0.834 0,0.506 -0.238,0.854 -0.71,1.045 z m -2.36,-2.187 h 0.883 c 0.256,0 0.447,-0.054 0.572,-0.163 a 0.55,0.55 0 0 0 0.187,-0.444 0.527,0.527 0 0 0 -0.184,-0.418 c -0.125,-0.108 -0.295,-0.16 -0.518,-0.16 h -0.94 z"
           fill-rule="evenodd"
           fill="url(#G)"
           transform="translate(874.262,18.215)"
           data-name="Path 1635"
           id="path78"
           style="fill:url(#G)" />
      </g>
    </g>
    <g
       data-name="Group 273"
       id="g136">
      <path
         d="m 51.961,36.495 -0.427,0.423 c -0.24,-0.222 -0.507,-0.305 -0.804,-0.248 -0.24,0.051 -0.471,0.187 -0.692,0.406 -0.513,0.51 -0.578,0.956 -0.196,1.34 0.217,0.22 0.488,0.228 0.81,0.022 l 1.175,-0.737 c 0.62,-0.392 1.167,-0.351 1.636,0.122 0.347,0.35 0.461,0.759 0.34,1.223 -0.098,0.371 -0.321,0.73 -0.671,1.076 -0.44,0.436 -0.884,0.667 -1.33,0.692 -0.429,0.025 -0.817,-0.14 -1.17,-0.494 l 0.428,-0.423 c 0.27,0.272 0.571,0.374 0.909,0.307 0.268,-0.054 0.528,-0.207 0.781,-0.457 0.225,-0.224 0.379,-0.443 0.462,-0.659 0.119,-0.305 0.075,-0.562 -0.131,-0.77 -0.167,-0.167 -0.338,-0.241 -0.514,-0.222 -0.176,0.02 -0.434,0.137 -0.78,0.352 l -0.843,0.528 c -0.583,0.366 -1.078,0.346 -1.484,-0.064 -0.281,-0.284 -0.423,-0.607 -0.424,-0.97 0,-0.417 0.191,-0.817 0.572,-1.194 0.838,-0.83 1.621,-0.914 2.353,-0.253 z"
         fill-rule="evenodd"
         fill="url(#H)"
         transform="translate(866.582,9.94)"
         data-name="Path 1636"
         id="path84"
         style="fill:url(#H)" />
      <path
         d="m 55.555,36.126 0.44,-0.378 c 0.068,0.1 0.119,0.237 0.153,0.411 0.05,0.24 0.044,0.47 -0.018,0.688 -0.078,0.272 -0.264,0.534 -0.558,0.787 -0.36,0.31 -0.748,0.436 -1.163,0.38 -0.415,-0.058 -0.784,-0.275 -1.11,-0.653 -0.362,-0.421 -0.549,-0.844 -0.562,-1.27 -0.018,-0.467 0.18,-0.878 0.593,-1.233 0.37,-0.32 0.764,-0.427 1.183,-0.325 0.419,0.101 0.827,0.385 1.225,0.847 l -1.91,1.644 c 0.483,0.56 0.978,0.623 1.484,0.187 a 0.942,0.942 0 0 0 0.335,-0.603 c 0.023,-0.203 -0.008,-0.362 -0.092,-0.482 z m -2.021,0.556 1.455,-1.253 c -0.471,-0.48 -0.934,-0.525 -1.386,-0.134 a 0.885,0.885 0 0 0 -0.315,0.67 0.998,0.998 0 0 0 0.246,0.717 z"
         fill-rule="evenodd"
         fill="url(#I)"
         transform="translate(866.976,9.774)"
         data-name="Path 1637"
         id="path86"
         style="fill:url(#I)" />
      <path
         d="m 56.31,34.387 1.202,1.55 -0.459,0.355 -2.066,-2.667 0.432,-0.334 0.344,0.443 0.01,-0.008 C 55.71,33.22 55.83,32.848 56.137,32.611 a 0.517,0.517 0 0 1 0.132,-0.077 l 0.36,0.464 -0.173,0.134 a 0.834,0.834 0 0 0 -0.346,0.598 0.9,0.9 0 0 0 0.2,0.657 z"
         fill-rule="evenodd"
         fill="url(#J)"
         transform="translate(867.216,9.565)"
         data-name="Path 1638"
         id="path88"
         style="fill:url(#J)" />
      <path
         d="m 59.182,34.004 -0.777,-2.811 0.518,-0.363 0.862,3.517 -0.509,0.355 -2.967,-2.04 0.55,-0.386 2.313,1.736 z"
         fill-rule="evenodd"
         fill="url(#K)"
         transform="translate(867.358,9.383)"
         data-name="Path 1639"
         id="path90"
         style="fill:url(#K)" />
      <path
         d="m 59.347,29.86 -0.49,0.314 -0.348,-0.544 0.49,-0.313 z m 0.33,0.515 1.82,2.842 -0.488,0.313 -1.82,-2.84 0.489,-0.315 z"
         fill-rule="evenodd"
         fill="url(#L)"
         transform="translate(867.592,9.222)"
         data-name="Path 1640"
         id="path92"
         style="fill:url(#L)" />
      <path
         d="m 63.277,29.425 1.15,1.988 -0.502,0.29 -1.041,-1.796 c -0.153,-0.265 -0.314,-0.43 -0.48,-0.498 -0.166,-0.068 -0.367,-0.035 -0.603,0.104 a 0.839,0.839 0 0 0 -0.393,0.48 c -0.09,0.281 -0.034,0.598 0.169,0.946 l 0.922,1.592 -0.503,0.29 -1.692,-2.919 0.474,-0.273 0.239,0.411 0.012,-0.005 c 0.036,-0.464 0.241,-0.805 0.614,-1.02 0.285,-0.165 0.556,-0.235 0.81,-0.208 0.331,0.036 0.606,0.243 0.824,0.618 z"
         fill-rule="evenodd"
         fill="url(#M)"
         transform="translate(867.784,9.166)"
         data-name="Path 1641"
         id="path94"
         style="fill:url(#M)" />
      <path
         d="m 65.84,26.939 1.378,2.773 c 0.197,0.397 0.288,0.734 0.276,1.015 -0.024,0.506 -0.343,0.912 -0.957,1.218 -0.713,0.355 -1.256,0.25 -1.63,-0.315 l 0.52,-0.258 c 0.222,0.288 0.534,0.332 0.935,0.133 0.39,-0.193 0.584,-0.456 0.582,-0.786 0,-0.172 -0.078,-0.41 -0.229,-0.714 l -0.063,-0.127 c -0.032,0.371 -0.239,0.651 -0.62,0.841 -0.478,0.237 -0.93,0.224 -1.36,-0.037 -0.34,-0.21 -0.62,-0.535 -0.838,-0.974 -0.219,-0.44 -0.283,-0.858 -0.193,-1.255 0.09,-0.397 0.334,-0.695 0.731,-0.893 0.374,-0.186 0.774,-0.163 1.199,0.067 l -0.222,-0.445 0.49,-0.243 z m -1.428,2.582 c 0.174,0.35 0.38,0.594 0.62,0.73 0.257,0.15 0.521,0.159 0.792,0.024 a 0.883,0.883 0 0 0 0.446,-0.482 c 0.108,-0.279 0.072,-0.597 -0.106,-0.956 -0.425,-0.853 -0.915,-1.143 -1.47,-0.868 -0.563,0.28 -0.657,0.798 -0.282,1.552 z"
         fill-rule="evenodd"
         fill="url(#N)"
         transform="translate(868.136,8.968)"
         data-name="Path 1642"
         id="path96"
         style="fill:url(#N)" />
      <path
         d="m 70.156,28.127 -0.13,-2.896 0.597,-0.23 c 0.015,0.782 0.027,1.96 0.036,3.533 -0.004,0.537 -0.02,0.894 -0.047,1.07 -0.03,0.228 -0.095,0.394 -0.196,0.498 -0.082,0.082 -0.247,0.17 -0.498,0.268 a 1.15,1.15 0 0 1 -0.246,0.04 l -0.186,-0.482 c 0.116,-0.003 0.232,-0.028 0.346,-0.072 0.135,-0.052 0.22,-0.13 0.25,-0.235 0.023,-0.087 0.036,-0.324 0.041,-0.713 l -2.442,-2.77 0.616,-0.238 1.845,2.232 z"
         fill-rule="evenodd"
         fill="url(#O)"
         transform="translate(868.57,8.761)"
         data-name="Path 1643"
         id="path98"
         style="fill:url(#O)" />
      <path
         d="m 71.197,26.532 c -0.147,-0.458 -0.145,-0.885 0,-1.28 0.169,-0.446 0.498,-0.747 0.988,-0.903 0.49,-0.156 0.933,-0.1 1.327,0.166 0.347,0.238 0.594,0.586 0.74,1.045 0.146,0.46 0.146,0.885 -10e-4,1.28 -0.167,0.445 -0.497,0.746 -0.987,0.902 -0.49,0.156 -0.932,0.101 -1.327,-0.166 -0.348,-0.236 -0.594,-0.585 -0.74,-1.044 z m 0.572,-0.182 c 0.095,0.299 0.238,0.538 0.43,0.716 0.262,0.25 0.569,0.32 0.917,0.21 a 0.866,0.866 0 0 0 0.628,-0.701 1.646,1.646 0 0 0 -0.064,-0.833 1.639,1.639 0 0 0 -0.428,-0.717 0.869,0.869 0 0 0 -0.919,-0.209 0.872,0.872 0 0 0 -0.629,0.702 c -0.052,0.256 -0.03,0.533 0.065,0.832 z"
         fill-rule="evenodd"
         fill="url(#P)"
         transform="translate(868.934,8.682)"
         data-name="Path 1644"
         id="path100"
         style="fill:url(#P)" />
      <path
         d="m 77.708,26.454 -0.532,0.133 -0.118,-0.474 -0.015,-0.01 c -0.144,0.448 -0.45,0.73 -0.919,0.847 -0.294,0.074 -0.554,0.063 -0.782,-0.03 -0.284,-0.12 -0.47,-0.357 -0.56,-0.711 l -0.587,-2.353 0.563,-0.142 0.543,2.172 c 0.12,0.48 0.395,0.666 0.826,0.559 0.325,-0.082 0.537,-0.266 0.638,-0.553 0.08,-0.223 0.084,-0.479 0.012,-0.767 l -0.45,-1.802 0.563,-0.141 z"
         fill-rule="evenodd"
         fill="url(#Q)"
         transform="translate(869.266,8.567)"
         data-name="Path 1645"
         id="path102"
         style="fill:url(#Q)" />
      <path
         d="m 80.556,23.036 -0.547,0.092 0.363,2.163 c 0.029,0.174 0.158,0.241 0.389,0.203 l 0.202,-0.034 0.073,0.44 c -0.32,0.084 -0.461,0.122 -0.423,0.116 -0.459,0.076 -0.729,-0.123 -0.809,-0.597 l -0.367,-2.194 -0.463,0.076 -0.077,-0.464 0.461,-0.077 -0.154,-0.93 0.572,-0.095 0.156,0.929 0.546,-0.092 z"
         fill-rule="evenodd"
         fill="url(#R)"
         transform="translate(869.767,8.413)"
         data-name="Path 1646"
         id="path104"
         style="fill:url(#R)" />
      <path
         d="m 83.863,23.253 0.272,2.28 -0.576,0.07 -0.263,-2.19 c -0.029,-0.248 -0.095,-0.425 -0.196,-0.53 -0.125,-0.123 -0.317,-0.17 -0.575,-0.138 -0.27,0.032 -0.48,0.137 -0.625,0.315 -0.179,0.22 -0.244,0.525 -0.197,0.913 l 0.219,1.825 -0.577,0.07 -0.551,-4.6 0.577,-0.068 0.203,1.698 0.012,-0.001 c 0.236,-0.398 0.55,-0.62 0.938,-0.666 0.327,-0.038 0.603,0.004 0.826,0.13 0.29,0.164 0.46,0.461 0.513,0.892 z"
         fill-rule="evenodd"
         fill="url(#S)"
         transform="translate(869.97,8.356)"
         data-name="Path 1647"
         id="path106"
         style="fill:url(#S)" />
      <path
         d="m 86.83,24.207 0.58,-0.033 c -0.006,0.12 -0.05,0.26 -0.128,0.42 -0.107,0.223 -0.251,0.4 -0.434,0.536 -0.228,0.168 -0.534,0.262 -0.922,0.283 -0.473,0.028 -0.859,-0.108 -1.153,-0.406 -0.293,-0.298 -0.455,-0.696 -0.482,-1.194 -0.031,-0.553 0.077,-1.003 0.326,-1.35 0.27,-0.38 0.676,-0.587 1.22,-0.617 0.489,-0.027 0.867,0.128 1.137,0.463 0.27,0.335 0.423,0.809 0.456,1.418 l -2.515,0.141 c 0.04,0.738 0.396,1.09 1.062,1.053 a 0.946,0.946 0 0 0 0.633,-0.276 c 0.142,-0.145 0.215,-0.292 0.22,-0.438 z m -1.94,-0.79 1.916,-0.108 c -0.082,-0.666 -0.42,-0.984 -1.018,-0.95 a 0.888,0.888 0 0 0 -0.659,0.342 c -0.174,0.212 -0.255,0.45 -0.24,0.717 z"
         fill-rule="evenodd"
         fill="url(#T)"
         transform="translate(870.342,8.424)"
         data-name="Path 1648"
         id="path108"
         style="fill:url(#T)" />
      <path
         d="m 89.906,25.346 -0.547,-0.02 0.166,-4.628 0.581,0.021 -0.06,1.682 a 1.17,1.17 0 0 1 1.018,-0.487 c 0.448,0.014 0.797,0.187 1.05,0.523 0.242,0.318 0.353,0.722 0.335,1.213 -0.018,0.49 -0.138,0.901 -0.36,1.232 -0.284,0.416 -0.691,0.615 -1.224,0.596 -0.414,-0.016 -0.724,-0.198 -0.93,-0.55 l -0.014,-0.001 -0.015,0.42 z m 1.94,-1.628 c 0.03,-0.842 -0.268,-1.275 -0.898,-1.297 -0.62,-0.022 -0.946,0.443 -0.98,1.397 -0.015,0.4 0.086,0.705 0.303,0.915 0.161,0.16 0.36,0.246 0.599,0.253 a 0.802,0.802 0 0 0 0.718,-0.347 c 0.158,-0.223 0.244,-0.53 0.258,-0.92 z"
         fill-rule="evenodd"
         fill="url(#U)"
         transform="translate(870.883,8.302)"
         data-name="Path 1649"
         id="path110"
         style="fill:url(#U)" />
      <path
         d="m 95.09,24.52 0.578,0.058 c -0.024,0.119 -0.089,0.25 -0.192,0.395 -0.139,0.204 -0.31,0.358 -0.51,0.462 -0.251,0.13 -0.57,0.177 -0.955,0.14 -0.473,-0.047 -0.832,-0.24 -1.077,-0.582 -0.244,-0.338 -0.342,-0.757 -0.292,-1.253 0.054,-0.553 0.232,-0.98 0.531,-1.283 0.325,-0.335 0.76,-0.475 1.302,-0.422 0.486,0.049 0.837,0.26 1.051,0.633 0.215,0.373 0.292,0.864 0.233,1.472 l -2.51,-0.249 c -0.072,0.736 0.224,1.137 0.89,1.203 a 0.952,0.952 0 0 0 0.667,-0.173 c 0.162,-0.123 0.257,-0.255 0.284,-0.4 z m -1.796,-1.078 1.911,0.189 c 0.022,-0.672 -0.264,-1.037 -0.858,-1.096 a 0.884,0.884 0 0 0 -0.704,0.235 1.004,1.004 0 0 0 -0.349,0.672 z"
         fill-rule="evenodd"
         fill="url(#V)"
         transform="translate(871.232,8.443)"
         data-name="Path 1650"
         id="path112"
         style="fill:url(#V)" />
      <path
         d="m 98.764,23.702 -0.553,-0.088 c 0.047,-0.376 -0.193,-0.607 -0.719,-0.69 a 0.925,0.925 0 0 0 -0.464,0.03 0.407,0.407 0 0 0 -0.288,0.332 0.323,0.323 0 0 0 0.097,0.31 c 0.067,0.058 0.216,0.137 0.45,0.235 l 0.552,0.232 c 0.337,0.14 0.566,0.292 0.688,0.45 0.122,0.16 0.164,0.354 0.127,0.583 a 0.982,0.982 0 0 1 -0.506,0.741 c -0.284,0.16 -0.624,0.208 -1.019,0.144 -0.938,-0.15 -1.364,-0.617 -1.279,-1.4 l 0.554,0.088 c -0.038,0.46 0.227,0.736 0.796,0.827 0.222,0.036 0.415,0.021 0.579,-0.044 a 0.437,0.437 0 0 0 0.288,-0.358 0.326,0.326 0 0 0 -0.101,-0.311 c -0.087,-0.079 -0.255,-0.172 -0.5,-0.276 L 96.827,24.24 c -0.504,-0.211 -0.725,-0.523 -0.658,-0.935 0.055,-0.344 0.229,-0.592 0.521,-0.746 0.261,-0.133 0.574,-0.169 0.94,-0.11 0.516,0.083 0.86,0.295 1.033,0.636 0.1,0.204 0.135,0.41 0.1,0.617 z"
         fill-rule="evenodd"
         fill="url(#W)"
         transform="translate(871.575,8.486)"
         data-name="Path 1651"
         id="path114"
         style="fill:url(#W)" />
      <path
         d="m 100.595,23.687 -0.543,-0.112 -0.444,2.147 c -0.036,0.172 0.06,0.283 0.289,0.33 l 0.2,0.04 -0.09,0.438 C 99.679,26.49 99.533,26.477 99.571,26.485 99.115,26.39 98.935,26.108 99.034,25.637 l 0.45,-2.18 -0.46,-0.095 0.096,-0.461 0.46,0.095 0.19,-0.923 0.568,0.118 -0.19,0.922 0.542,0.112 z"
         fill-rule="evenodd"
         fill="url(#X)"
         transform="translate(871.913,8.449)"
         data-name="Path 1652"
         id="path116"
         style="fill:url(#X)" />
      <path
         d="m 105.042,25.266 -0.539,-0.155 c 0.092,-0.368 -0.118,-0.626 -0.63,-0.772 a 0.936,0.936 0 0 0 -0.465,-0.027 c -0.172,0.04 -0.28,0.14 -0.326,0.296 a 0.325,0.325 0 0 0 0.06,0.319 c 0.058,0.065 0.197,0.163 0.417,0.288 l 0.52,0.297 c 0.318,0.182 0.528,0.359 0.63,0.53 0.101,0.173 0.12,0.371 0.055,0.594 a 0.984,0.984 0 0 1 -0.593,0.675 c -0.3,0.124 -0.644,0.13 -1.028,0.019 -0.914,-0.263 -1.28,-0.778 -1.1,-1.545 l 0.54,0.155 c -0.095,0.452 0.135,0.758 0.689,0.918 0.216,0.062 0.41,0.071 0.58,0.026 a 0.439,0.439 0 0 0 0.33,-0.322 0.324,0.324 0 0 0 -0.064,-0.32 c -0.076,-0.089 -0.231,-0.2 -0.462,-0.334 l -0.602,-0.341 c -0.476,-0.273 -0.657,-0.608 -0.541,-1.01 0.097,-0.334 0.298,-0.56 0.607,-0.677 0.277,-0.1 0.591,-0.098 0.946,0.005 0.504,0.145 0.82,0.397 0.95,0.757 0.075,0.213 0.084,0.421 0.026,0.624 z"
         fill-rule="evenodd"
         fill="url(#Y)"
         transform="translate(872.232,8.634)"
         data-name="Path 1653"
         id="path118"
         style="fill:url(#Y)" />
      <path
         d="m 106.389,24.84 -1.066,3.201 -0.551,-0.183 1.067,-3.201 0.55,0.184 z m 0.195,-0.58 -0.551,-0.184 0.203,-0.612 0.551,0.184 z"
         fill-rule="evenodd"
         fill="url(#Z)"
         transform="translate(872.528,8.597)"
         data-name="Path 1654"
         id="path120"
         style="fill:url(#Z)" />
      <path
         d="m 109.425,26.998 -0.822,2.144 -0.542,-0.208 0.744,-1.94 c 0.109,-0.285 0.139,-0.513 0.087,-0.684 -0.052,-0.173 -0.205,-0.307 -0.46,-0.405 a 0.839,0.839 0 0 0 -0.62,-0.004 c -0.277,0.107 -0.487,0.348 -0.632,0.725 l -0.659,1.717 -0.542,-0.208 1.209,-3.151 0.51,0.197 -0.17,0.446 0.013,0.004 c 0.382,-0.262 0.775,-0.316 1.178,-0.161 0.308,0.117 0.531,0.284 0.67,0.499 0.18,0.28 0.193,0.624 0.036,1.03 z"
         fill-rule="evenodd"
         fill="url(#aa)"
         transform="translate(872.657,8.76)"
         data-name="Path 1655"
         id="path122"
         style="fill:url(#aa)" />
      <path
         d="m 112.382,28.376 -0.51,-0.234 c 0.127,-0.471 -0.021,-0.803 -0.445,-0.996 a 0.819,0.819 0 0 0 -0.85,0.067 c -0.217,0.147 -0.397,0.378 -0.54,0.696 -0.36,0.787 -0.252,1.31 0.32,1.571 0.18,0.082 0.369,0.09 0.564,0.027 0.196,-0.066 0.369,-0.203 0.518,-0.413 l 0.51,0.232 c -0.17,0.29 -0.391,0.5 -0.661,0.627 -0.356,0.163 -0.74,0.152 -1.152,-0.036 -0.432,-0.197 -0.71,-0.494 -0.831,-0.895 -0.122,-0.4 -0.08,-0.828 0.126,-1.282 0.23,-0.505 0.535,-0.852 0.917,-1.042 0.416,-0.213 0.871,-0.207 1.368,0.02 0.376,0.171 0.616,0.425 0.72,0.76 0.081,0.278 0.064,0.577 -0.054,0.898 z"
         fill-rule="evenodd"
         fill="url(#ab)"
         transform="translate(873.004,8.926)"
         data-name="Path 1656"
         id="path124"
         style="fill:url(#ab)" />
      <path
         d="m 114.197,30.665 0.513,0.272 c -0.068,0.1 -0.177,0.198 -0.327,0.293 a 1.406,1.406 0 0 1 -0.648,0.234 c -0.282,0.025 -0.594,-0.052 -0.936,-0.234 -0.42,-0.223 -0.678,-0.538 -0.776,-0.945 -0.097,-0.407 -0.03,-0.831 0.205,-1.272 0.26,-0.49 0.586,-0.819 0.978,-0.986 0.428,-0.186 0.882,-0.151 1.365,0.104 0.431,0.23 0.675,0.557 0.732,0.984 0.057,0.427 -0.057,0.911 -0.344,1.45 l -2.225,-1.182 c -0.348,0.654 -0.226,1.137 0.365,1.45 0.221,0.118 0.45,0.15 0.683,0.093 0.197,-0.051 0.335,-0.139 0.415,-0.261 z m -1.252,-1.68 1.695,0.9 c 0.276,-0.613 0.15,-1.06 -0.378,-1.34 a 0.884,0.884 0 0 0 -0.74,-0.05 c -0.26,0.091 -0.452,0.254 -0.577,0.49 z"
         fill-rule="evenodd"
         fill="url(#ac)"
         transform="translate(873.297,9.071)"
         data-name="Path 1657"
         id="path126"
         style="fill:url(#ac)" />
      <path
         d="m 119.932,30.21 -2.501,3.783 -0.517,-0.342 1.775,-2.685 -0.902,-0.596 0.25,-0.378 c 0.36,0.204 0.626,0.309 0.794,0.317 0.216,0.009 0.456,-0.108 0.721,-0.35 z"
         fill-rule="evenodd"
         fill="url(#ad)"
         transform="translate(873.823,9.29)"
         data-name="Path 1658"
         id="path128"
         style="fill:url(#ad)" />
      <path
         d="m 120.539,34.33 c -0.347,-0.263 -0.547,-0.58 -0.602,-0.953 -0.053,-0.373 0.054,-0.737 0.324,-1.094 0.266,-0.35 0.587,-0.563 0.964,-0.637 0.404,-0.083 0.792,0.016 1.163,0.299 0.863,0.652 0.871,1.538 0.024,2.656 -0.333,0.438 -0.69,0.776 -1.075,1.014 -0.662,0.415 -1.265,0.417 -1.809,0.005 -0.385,-0.292 -0.587,-0.631 -0.604,-1.016 -0.017,-0.289 0.061,-0.55 0.238,-0.784 l 0.463,0.351 c -0.271,0.416 -0.212,0.772 0.177,1.066 a 0.838,0.838 0 0 0 0.835,0.123 c 0.304,-0.11 0.663,-0.378 1.078,-0.801 l -0.002,-0.02 a 0.88,0.88 0 0 1 -0.579,0.06 1.444,1.444 0 0 1 -0.595,-0.268 z m 0.376,-0.355 a 0.89,0.89 0 0 0 0.557,0.196 c 0.279,-0.004 0.538,-0.164 0.777,-0.48 0.168,-0.223 0.247,-0.446 0.235,-0.67 -0.016,-0.256 -0.149,-0.478 -0.398,-0.666 a 0.821,0.821 0 0 0 -0.687,-0.17 c -0.245,0.05 -0.46,0.197 -0.643,0.44 -0.395,0.52 -0.342,0.97 0.16,1.35 z"
         fill-rule="evenodd"
         fill="url(#ae)"
         transform="translate(874.037,9.467)"
         data-name="Path 1659"
         id="path130"
         style="fill:url(#ae)" />
      <path
         d="m 123.554,33.702 0.363,-0.419 2.426,2.097 -0.326,0.376 c -0.492,0.04 -1.048,0.17 -1.665,0.393 a 7.743,7.743 0 0 0 -2.354,1.342 l -0.485,-0.419 c 0.457,-0.407 1.07,-0.773 1.838,-1.096 a 8.569,8.569 0 0 1 2.135,-0.604 z"
         fill-rule="evenodd"
         fill="url(#af)"
         transform="translate(874.314,9.645)"
         data-name="Path 1660"
         id="path132"
         style="fill:url(#af)" />
      <path
         d="m 127.99,38.484 -0.405,-0.398 c 0.266,-0.39 0.24,-0.742 -0.08,-1.057 -0.282,-0.278 -0.648,-0.33 -1.096,-0.156 a 2.44,2.44 0 0 0 -0.866,0.578 v 0.018 c 0.416,-0.11 0.808,0.017 1.174,0.378 0.251,0.247 0.402,0.54 0.45,0.879 0.058,0.43 -0.084,0.818 -0.425,1.165 -0.31,0.315 -0.68,0.481 -1.11,0.498 -0.201,0.008 -0.378,-0.018 -0.533,-0.08 -0.193,-0.075 -0.396,-0.219 -0.613,-0.431 -0.363,-0.359 -0.493,-0.794 -0.389,-1.307 0.088,-0.428 0.371,-0.885 0.85,-1.372 0.444,-0.45 0.896,-0.748 1.354,-0.894 0.605,-0.188 1.13,-0.065 1.571,0.37 0.232,0.229 0.375,0.49 0.43,0.786 0.065,0.366 -0.04,0.707 -0.312,1.023 z m -3.06,-0.299 c -0.19,0.194 -0.296,0.411 -0.316,0.65 -0.022,0.28 0.08,0.531 0.305,0.754 a 0.834,0.834 0 0 0 0.673,0.26 c 0.253,-0.02 0.487,-0.14 0.704,-0.36 a 0.996,0.996 0 0 0 0.298,-0.586 c 0.035,-0.274 -0.063,-0.524 -0.295,-0.753 -0.22,-0.217 -0.453,-0.314 -0.7,-0.295 a 1.04,1.04 0 0 0 -0.67,0.33 z"
         fill-rule="evenodd"
         fill="url(#ag)"
         transform="translate(874.586,9.958)"
         data-name="Path 1661"
         id="path134"
         style="fill:url(#ag)" />
    </g>
  </g>
  <defs
     id="defs789">
    <linearGradient
       x1="44.15843"
       y1="103.48786"
       x2="177.37876"
       y2="131.2666"
       id="a"
       gradientTransform="scale(0.83012843,1.2046329)"
       gradientUnits="userSpaceOnUse">
      <stop
         stop-color="#9f6420"
         offset=".02"
         id="stop140" />
      <stop
         stop-color="#ddb115"
         offset=".235"
         id="stop142" />
      <stop
         stop-color="#fff295"
         offset=".526"
         id="stop144" />
      <stop
         stop-color="#d7ab17"
         offset=".779"
         id="stop146" />
      <stop
         stop-color="#9f6420"
         offset="1"
         id="stop148" />
    </linearGradient>
    <linearGradient
       x1="38.112162"
       y1="116.3594"
       x2="152.65043"
       y2="148.66209"
       id="b"
       gradientTransform="scale(0.9654092,1.0358302)"
       gradientUnits="userSpaceOnUse">
      <stop
         stop-color="#9f6420"
         offset=".02"
         id="stop151" />
      <stop
         stop-color="#ddb115"
         offset=".235"
         id="stop153" />
      <stop
         stop-color="#fff295"
         offset=".526"
         id="stop155" />
      <stop
         stop-color="#d7ab17"
         offset=".779"
         id="stop157" />
      <stop
         stop-color="#9f6420"
         offset="1"
         id="stop159" />
    </linearGradient>
    <linearGradient
       x1="35.408309"
       y1="120.24368"
       x2="142.1983"
       y2="154.89567"
       id="c"
       gradientTransform="scale(1.0354994,0.9657176)"
       gradientUnits="userSpaceOnUse">
      <stop
         stop-color="#9f6420"
         offset=".02"
         id="stop162" />
      <stop
         stop-color="#ddb115"
         offset=".235"
         id="stop164" />
      <stop
         stop-color="#fff295"
         offset=".526"
         id="stop166" />
      <stop
         stop-color="#d7ab17"
         offset=".779"
         id="stop168" />
      <stop
         stop-color="#9f6420"
         offset="1"
         id="stop170" />
    </linearGradient>
    <linearGradient
       x1="43.49682"
       y1="93.285259"
       x2="176.6992"
       y2="121.06537"
       id="d"
       gradientTransform="scale(0.83016923,1.2045737)"
       gradientUnits="userSpaceOnUse">
      <stop
         stop-color="#9f6420"
         offset=".02"
         id="stop173" />
      <stop
         stop-color="#ddb115"
         offset=".235"
         id="stop175" />
      <stop
         stop-color="#fff295"
         offset=".526"
         id="stop177" />
      <stop
         stop-color="#d7ab17"
         offset=".779"
         id="stop179" />
      <stop
         stop-color="#9f6420"
         offset="1"
         id="stop181" />
    </linearGradient>
    <linearGradient
       x1="35.810085"
       y1="110.19578"
       x2="145.63337"
       y2="143.88891"
       id="e"
       gradientTransform="scale(1.00692,0.99312754)"
       gradientUnits="userSpaceOnUse">
      <stop
         stop-color="#9f6420"
         offset=".02"
         id="stop184" />
      <stop
         stop-color="#ddb115"
         offset=".235"
         id="stop186" />
      <stop
         stop-color="#fff295"
         offset=".526"
         id="stop188" />
      <stop
         stop-color="#d7ab17"
         offset=".779"
         id="stop190" />
      <stop
         stop-color="#9f6420"
         offset="1"
         id="stop192" />
    </linearGradient>
    <linearGradient
       x1="40.281281"
       y1="94.396581"
       x2="163.39945"
       y2="124.4384"
       id="f"
       gradientTransform="scale(0.89818906,1.1133513)"
       gradientUnits="userSpaceOnUse">
      <stop
         stop-color="#9f6420"
         offset=".02"
         id="stop195" />
      <stop
         stop-color="#ddb115"
         offset=".235"
         id="stop197" />
      <stop
         stop-color="#fff295"
         offset=".526"
         id="stop199" />
      <stop
         stop-color="#d7ab17"
         offset=".779"
         id="stop201" />
      <stop
         stop-color="#9f6420"
         offset="1"
         id="stop203" />
    </linearGradient>
    <linearGradient
       x1="34.169975"
       y1="130.16568"
       x2="150.93995"
       y2="161.85901"
       id="g"
       gradientTransform="scale(0.94703734,1.0559246)"
       gradientUnits="userSpaceOnUse">
      <stop
         stop-color="#9f6420"
         offset=".02"
         id="stop206" />
      <stop
         stop-color="#ddb115"
         offset=".235"
         id="stop208" />
      <stop
         stop-color="#fff295"
         offset=".526"
         id="stop210" />
      <stop
         stop-color="#d7ab17"
         offset=".779"
         id="stop212" />
      <stop
         stop-color="#9f6420"
         offset="1"
         id="stop214" />
    </linearGradient>
    <linearGradient
       x1="36.230785"
       y1="119.39816"
       x2="160.77276"
       y2="149.10443"
       id="h"
       gradientTransform="scale(0.88782556,1.1263474)"
       gradientUnits="userSpaceOnUse">
      <stop
         stop-color="#9f6420"
         offset=".02"
         id="stop217" />
      <stop
         stop-color="#ddb115"
         offset=".235"
         id="stop219" />
      <stop
         stop-color="#fff295"
         offset=".526"
         id="stop221" />
      <stop
         stop-color="#d7ab17"
         offset=".779"
         id="stop223" />
      <stop
         stop-color="#9f6420"
         offset="1"
         id="stop225" />
    </linearGradient>
    <linearGradient
       x1="36.018704"
       y1="118.18132"
       x2="159.12153"
       y2="148.2381"
       id="i"
       gradientTransform="scale(0.89823289,1.113297)"
       gradientUnits="userSpaceOnUse">
      <stop
         stop-color="#9f6420"
         offset=".02"
         id="stop228" />
      <stop
         stop-color="#ddb115"
         offset=".235"
         id="stop230" />
      <stop
         stop-color="#fff295"
         offset=".526"
         id="stop232" />
      <stop
         stop-color="#d7ab17"
         offset=".779"
         id="stop234" />
      <stop
         stop-color="#9f6420"
         offset="1"
         id="stop236" />
    </linearGradient>
    <linearGradient
       x1="42.38018"
       y1="96.985549"
       x2="189.1038"
       y2="122.19628"
       id="j"
       gradientTransform="scale(0.75362643,1.3269174)"
       gradientUnits="userSpaceOnUse">
      <stop
         stop-color="#9f6420"
         offset=".02"
         id="stop239" />
      <stop
         stop-color="#ddb115"
         offset=".235"
         id="stop241" />
      <stop
         stop-color="#fff295"
         offset=".526"
         id="stop243" />
      <stop
         stop-color="#d7ab17"
         offset=".779"
         id="stop245" />
      <stop
         stop-color="#9f6420"
         offset="1"
         id="stop247" />
    </linearGradient>
    <linearGradient
       x1="35.827094"
       y1="112.60193"
       x2="160.37349"
       y2="142.30175"
       id="k"
       gradientTransform="scale(0.88792719,1.1262185)"
       gradientUnits="userSpaceOnUse">
      <stop
         stop-color="#9f6420"
         offset=".02"
         id="stop250" />
      <stop
         stop-color="#ddb115"
         offset=".235"
         id="stop252" />
      <stop
         stop-color="#fff295"
         offset=".526"
         id="stop254" />
      <stop
         stop-color="#d7ab17"
         offset=".779"
         id="stop256" />
      <stop
         stop-color="#9f6420"
         offset="1"
         id="stop258" />
    </linearGradient>
    <linearGradient
       x1="35.096017"
       y1="112.52105"
       x2="156.47054"
       y2="143.00207"
       id="l"
       gradientTransform="scale(0.9110468,1.0976385)"
       gradientUnits="userSpaceOnUse">
      <stop
         stop-color="#9f6420"
         offset=".02"
         id="stop261" />
      <stop
         stop-color="#ddb115"
         offset=".235"
         id="stop263" />
      <stop
         stop-color="#fff295"
         offset=".526"
         id="stop265" />
      <stop
         stop-color="#d7ab17"
         offset=".779"
         id="stop267" />
      <stop
         stop-color="#9f6420"
         offset="1"
         id="stop269" />
    </linearGradient>
    <linearGradient
       x1="68.310484"
       y1="56.055247"
       x2="308.55448"
       y2="71.457834"
       id="m"
       gradientTransform="scale(0.46029906,2.1725006)"
       gradientUnits="userSpaceOnUse">
      <stop
         stop-color="#9f6420"
         offset=".02"
         id="stop272" />
      <stop
         stop-color="#ddb115"
         offset=".235"
         id="stop274" />
      <stop
         stop-color="#fff295"
         offset=".526"
         id="stop276" />
      <stop
         stop-color="#d7ab17"
         offset=".779"
         id="stop278" />
      <stop
         stop-color="#9f6420"
         offset="1"
         id="stop280" />
    </linearGradient>
    <linearGradient
       x1="34.932439"
       y1="108.83864"
       x2="156.35062"
       y2="139.30553"
       id="n"
       gradientTransform="scale(0.91078703,1.0979515)"
       gradientUnits="userSpaceOnUse">
      <stop
         stop-color="#9f6420"
         offset=".02"
         id="stop283" />
      <stop
         stop-color="#ddb115"
         offset=".235"
         id="stop285" />
      <stop
         stop-color="#fff295"
         offset=".526"
         id="stop287" />
      <stop
         stop-color="#d7ab17"
         offset=".779"
         id="stop289" />
      <stop
         stop-color="#9f6420"
         offset="1"
         id="stop291" />
    </linearGradient>
    <linearGradient
       x1="40.370923"
       y1="91.835433"
       x2="181.89092"
       y2="117.97833"
       id="o"
       gradientTransform="scale(0.78133281,1.2798643)"
       gradientUnits="userSpaceOnUse">
      <stop
         stop-color="#9f6420"
         offset=".02"
         id="stop294" />
      <stop
         stop-color="#ddb115"
         offset=".235"
         id="stop296" />
      <stop
         stop-color="#fff295"
         offset=".526"
         id="stop298" />
      <stop
         stop-color="#d7ab17"
         offset=".779"
         id="stop300" />
      <stop
         stop-color="#9f6420"
         offset="1"
         id="stop302" />
    </linearGradient>
    <linearGradient
       x1="55.430628"
       y1="345.4929"
       x2="55.028509"
       y2="336.69657"
       id="p"
       gradientTransform="scale(2.178982,0.45892991)"
       gradientUnits="userSpaceOnUse">
      <stop
         stop-color="#9f6420"
         offset=".02"
         id="stop305" />
      <stop
         stop-color="#ddb115"
         offset=".235"
         id="stop307" />
      <stop
         stop-color="#fff295"
         offset=".526"
         id="stop309" />
      <stop
         stop-color="#d7ab17"
         offset=".779"
         id="stop311" />
      <stop
         stop-color="#9f6420"
         offset="1"
         id="stop313" />
    </linearGradient>
    <linearGradient
       x1="-181.19677"
       y1="-1201.1213"
       x2="-156.97509"
       y2="-1201.1213"
       id="q"
       gradientTransform="scale(2.203191,0.45388711)"
       gradientUnits="userSpaceOnUse">
      <stop
         stop-color="#9f6420"
         offset=".02"
         id="stop316" />
      <stop
         stop-color="#ddb115"
         offset=".235"
         id="stop318" />
      <stop
         stop-color="#fff295"
         offset=".526"
         id="stop320" />
      <stop
         stop-color="#d7ab17"
         offset=".779"
         id="stop322" />
      <stop
         stop-color="#9f6420"
         offset="1"
         id="stop324" />
    </linearGradient>
    <linearGradient
       x1="74.680672"
       y1="24.884203"
       x2="74.680672"
       y2="113.07495"
       id="r"
       gradientTransform="scale(0.89196195,1.1211241)"
       gradientUnits="userSpaceOnUse">
      <stop
         stop-color="#9f6420"
         offset=".02"
         id="stop327" />
      <stop
         stop-color="#ddb115"
         offset=".235"
         id="stop329" />
      <stop
         stop-color="#fff295"
         offset=".526"
         id="stop331" />
      <stop
         stop-color="#d7ab17"
         offset=".779"
         id="stop333" />
      <stop
         stop-color="#9f6420"
         offset="1"
         id="stop335" />
    </linearGradient>
    <linearGradient
       x1="48.709061"
       y1="73.759686"
       x2="160.10461"
       y2="73.510062"
       id="s"
       gradientTransform="scale(0.89106021,1.1222586)"
       gradientUnits="userSpaceOnUse">
      <stop
         stop-color="#9f6420"
         offset=".02"
         id="stop338" />
      <stop
         stop-color="#ddb115"
         offset=".235"
         id="stop340" />
      <stop
         stop-color="#fff295"
         offset=".526"
         id="stop342" />
      <stop
         stop-color="#d7ab17"
         offset=".779"
         id="stop344" />
      <stop
         stop-color="#9f6420"
         offset="1"
         id="stop346" />
    </linearGradient>
    <linearGradient
       x1="63.169357"
       y1="35.586741"
       x2="63.169357"
       y2="154.06883"
       id="t"
       gradientTransform="scale(1.1985251,0.83435883)"
       gradientUnits="userSpaceOnUse">
      <stop
         stop-color="#9f6420"
         offset=".02"
         id="stop349" />
      <stop
         stop-color="#ddb115"
         offset=".235"
         id="stop351" />
      <stop
         stop-color="#fff295"
         offset=".526"
         id="stop353" />
      <stop
         stop-color="#d7ab17"
         offset=".779"
         id="stop355" />
      <stop
         stop-color="#9f6420"
         offset="1"
         id="stop357" />
    </linearGradient>
    <linearGradient
       x1="35.491572"
       y1="61.546524"
       x2="118.3581"
       y2="61.202681"
       id="u"
       gradientTransform="scale(1.1975579,0.8350327)"
       gradientUnits="userSpaceOnUse">
      <stop
         stop-color="#9f6420"
         offset=".02"
         id="stop360" />
      <stop
         stop-color="#ddb115"
         offset=".235"
         id="stop362" />
      <stop
         stop-color="#fff295"
         offset=".526"
         id="stop364" />
      <stop
         stop-color="#d7ab17"
         offset=".779"
         id="stop366" />
      <stop
         stop-color="#9f6420"
         offset="1"
         id="stop368" />
    </linearGradient>
    <linearGradient
       x1="49.109993"
       y1="37.339969"
       x2="49.109993"
       y2="207.57966"
       id="v"
       gradientTransform="scale(1.7216354,0.58084309)"
       gradientUnits="userSpaceOnUse">
      <stop
         stop-color="#9f6420"
         offset=".02"
         id="stop371" />
      <stop
         stop-color="#ddb115"
         offset=".235"
         id="stop373" />
      <stop
         stop-color="#fff295"
         offset=".526"
         id="stop375" />
      <stop
         stop-color="#d7ab17"
         offset=".779"
         id="stop377" />
      <stop
         stop-color="#9f6420"
         offset="1"
         id="stop379" />
    </linearGradient>
    <linearGradient
       x1="23.545248"
       y1="196.52508"
       x2="80.601537"
       y2="196.02393"
       id="w"
       gradientTransform="scale(1.739548,0.57486198)"
       gradientUnits="userSpaceOnUse">
      <stop
         stop-color="#9f6420"
         offset=".02"
         id="stop382" />
      <stop
         stop-color="#ddb115"
         offset=".235"
         id="stop384" />
      <stop
         stop-color="#fff295"
         offset=".526"
         id="stop386" />
      <stop
         stop-color="#d7ab17"
         offset=".779"
         id="stop388" />
      <stop
         stop-color="#9f6420"
         offset="1"
         id="stop390" />
    </linearGradient>
    <linearGradient
       x1="140.92137"
       y1="23.659073"
       x2="140.92137"
       y2="104.66765"
       id="x"
       gradientTransform="scale(0.81912243,1.2208187)"
       gradientUnits="userSpaceOnUse">
      <stop
         stop-color="#9f6420"
         offset=".02"
         id="stop393" />
      <stop
         stop-color="#ddb115"
         offset=".235"
         id="stop395" />
      <stop
         stop-color="#fff295"
         offset=".526"
         id="stop397" />
      <stop
         stop-color="#d7ab17"
         offset=".779"
         id="stop399" />
      <stop
         stop-color="#9f6420"
         offset="1"
         id="stop401" />
    </linearGradient>
    <linearGradient
       x1="46.954607"
       y1="67.72268"
       x2="168.30258"
       y2="67.503775"
       id="y"
       gradientTransform="scale(0.81798927,1.2225099)"
       gradientUnits="userSpaceOnUse">
      <stop
         stop-color="#9f6420"
         offset=".02"
         id="stop404" />
      <stop
         stop-color="#ddb115"
         offset=".235"
         id="stop406" />
      <stop
         stop-color="#fff295"
         offset=".526"
         id="stop408" />
      <stop
         stop-color="#d7ab17"
         offset=".779"
         id="stop410" />
      <stop
         stop-color="#9f6420"
         offset="1"
         id="stop412" />
    </linearGradient>
    <linearGradient
       x1="114.58175"
       y1="24.356495"
       x2="114.58175"
       y2="124.78342"
       id="z"
       gradientTransform="scale(1.0159646,0.98428625)"
       gradientUnits="userSpaceOnUse">
      <stop
         stop-color="#9f6420"
         offset=".02"
         id="stop415" />
      <stop
         stop-color="#ddb115"
         offset=".235"
         id="stop417" />
      <stop
         stop-color="#fff295"
         offset=".526"
         id="stop419" />
      <stop
         stop-color="#d7ab17"
         offset=".779"
         id="stop421" />
      <stop
         stop-color="#9f6420"
         offset="1"
         id="stop423" />
    </linearGradient>
    <linearGradient
       x1="36.696639"
       y1="105.2022"
       x2="134.33279"
       y2="104.89322"
       id="A"
       gradientTransform="scale(1.0163924,0.98387198)"
       gradientUnits="userSpaceOnUse">
      <stop
         stop-color="#9f6420"
         offset=".02"
         id="stop426" />
      <stop
         stop-color="#ddb115"
         offset=".235"
         id="stop428" />
      <stop
         stop-color="#fff295"
         offset=".526"
         id="stop430" />
      <stop
         stop-color="#d7ab17"
         offset=".779"
         id="stop432" />
      <stop
         stop-color="#9f6420"
         offset="1"
         id="stop434" />
    </linearGradient>
    <linearGradient
       x1="77.057153"
       y1="39.910487"
       x2="77.057153"
       y2="173.31865"
       id="B"
       gradientTransform="scale(1.3489338,0.74132621)"
       gradientUnits="userSpaceOnUse">
      <stop
         stop-color="#9f6420"
         offset=".02"
         id="stop437" />
      <stop
         stop-color="#ddb115"
         offset=".235"
         id="stop439" />
      <stop
         stop-color="#fff295"
         offset=".526"
         id="stop441" />
      <stop
         stop-color="#d7ab17"
         offset=".779"
         id="stop443" />
      <stop
         stop-color="#9f6420"
         offset="1"
         id="stop445" />
    </linearGradient>
    <linearGradient
       x1="27.079205"
       y1="49.169469"
       x2="99.447116"
       y2="48.777139"
       id="C"
       gradientTransform="scale(1.3713486,0.72920918)"
       gradientUnits="userSpaceOnUse">
      <stop
         stop-color="#9f6420"
         offset=".02"
         id="stop448" />
      <stop
         stop-color="#ddb115"
         offset=".235"
         id="stop450" />
      <stop
         stop-color="#fff295"
         offset=".526"
         id="stop452" />
      <stop
         stop-color="#d7ab17"
         offset=".779"
         id="stop454" />
      <stop
         stop-color="#9f6420"
         offset="1"
         id="stop456" />
    </linearGradient>
    <linearGradient
       x1="212.45305"
       y1="16.232414"
       x2="212.45305"
       y2="77.318473"
       id="D"
       gradientTransform="scale(0.6177388,1.6188072)"
       gradientUnits="userSpaceOnUse">
      <stop
         stop-color="#9f6420"
         offset=".02"
         id="stop459" />
      <stop
         stop-color="#ddb115"
         offset=".235"
         id="stop461" />
      <stop
         stop-color="#fff295"
         offset=".526"
         id="stop463" />
      <stop
         stop-color="#d7ab17"
         offset=".779"
         id="stop465" />
      <stop
         stop-color="#9f6420"
         offset="1"
         id="stop467" />
    </linearGradient>
    <linearGradient
       x1="56.254072"
       y1="42.268303"
       x2="221.36483"
       y2="42.094512"
       id="E"
       gradientTransform="scale(0.60105823,1.6637323)"
       gradientUnits="userSpaceOnUse">
      <stop
         stop-color="#9f6420"
         offset=".02"
         id="stop470" />
      <stop
         stop-color="#ddb115"
         offset=".235"
         id="stop472" />
      <stop
         stop-color="#fff295"
         offset=".526"
         id="stop474" />
      <stop
         stop-color="#d7ab17"
         offset=".779"
         id="stop476" />
      <stop
         stop-color="#9f6420"
         offset="1"
         id="stop478" />
    </linearGradient>
    <linearGradient
       x1="115.80689"
       y1="111.29099"
       x2="130.62435"
       y2="120.99787"
       id="F"
       gradientTransform="scale(0.99993778,1.0000622)"
       gradientUnits="userSpaceOnUse">
      <stop
         stop-color="#9f6420"
         offset=".02"
         id="stop481" />
      <stop
         stop-color="#ddb115"
         offset=".235"
         id="stop483" />
      <stop
         stop-color="#fff295"
         offset=".526"
         id="stop485" />
      <stop
         stop-color="#d7ab17"
         offset=".779"
         id="stop487" />
      <stop
         stop-color="#9f6420"
         offset="1"
         id="stop489" />
    </linearGradient>
    <linearGradient
       x1="130.34607"
       y1="98.51648"
       x2="147.06832"
       y2="107.12008"
       id="G"
       gradientTransform="scale(0.88595497,1.1287255)"
       gradientUnits="userSpaceOnUse">
      <stop
         stop-color="#9f6420"
         offset=".02"
         id="stop492" />
      <stop
         stop-color="#ddb115"
         offset=".235"
         id="stop494" />
      <stop
         stop-color="#fff295"
         offset=".526"
         id="stop496" />
      <stop
         stop-color="#d7ab17"
         offset=".779"
         id="stop498" />
      <stop
         stop-color="#9f6420"
         offset="1"
         id="stop500" />
    </linearGradient>
    <linearGradient
       x1="37.378444"
       y1="38.647287"
       x2="146.85728"
       y2="38.647287"
       id="H"
       gradientTransform="scale(1.005501,0.99452908)"
       gradientUnits="userSpaceOnUse">
      <stop
         stop-color="#9f6420"
         offset=".02"
         id="stop503" />
      <stop
         stop-color="#ddb115"
         offset=".235"
         id="stop505" />
      <stop
         stop-color="#fff295"
         offset=".526"
         id="stop507" />
      <stop
         stop-color="#d7ab17"
         offset=".779"
         id="stop509" />
      <stop
         stop-color="#9f6420"
         offset="1"
         id="stop511" />
    </linearGradient>
    <linearGradient
       x1="37.648335"
       y1="35.819191"
       x2="149.08038"
       y2="35.819191"
       id="I"
       gradientTransform="scale(0.98780716,1.0123433)"
       gradientUnits="userSpaceOnUse">
      <stop
         stop-color="#9f6420"
         offset=".02"
         id="stop514" />
      <stop
         stop-color="#ddb115"
         offset=".235"
         id="stop516" />
      <stop
         stop-color="#fff295"
         offset=".526"
         id="stop518" />
      <stop
         stop-color="#d7ab17"
         offset=".779"
         id="stop520" />
      <stop
         stop-color="#9f6420"
         offset="1"
         id="stop522" />
    </linearGradient>
    <linearGradient
       x1="45.078869"
       y1="28.208165"
       x2="179.35103"
       y2="28.208165"
       id="J"
       gradientTransform="scale(0.81969503,1.2199659)"
       gradientUnits="userSpaceOnUse">
      <stop
         stop-color="#9f6420"
         offset=".02"
         id="stop525" />
      <stop
         stop-color="#ddb115"
         offset=".235"
         id="stop527" />
      <stop
         stop-color="#fff295"
         offset=".526"
         id="stop529" />
      <stop
         stop-color="#d7ab17"
         offset=".779"
         id="stop531" />
      <stop
         stop-color="#9f6420"
         offset="1"
         id="stop533" />
    </linearGradient>
    <linearGradient
       x1="38.848795"
       y1="31.045284"
       x2="155.02795"
       y2="31.045284"
       id="K"
       gradientTransform="scale(0.94748471,1.055426)"
       gradientUnits="userSpaceOnUse">
      <stop
         stop-color="#9f6420"
         offset=".02"
         id="stop536" />
      <stop
         stop-color="#ddb115"
         offset=".235"
         id="stop538" />
      <stop
         stop-color="#fff295"
         offset=".526"
         id="stop540" />
      <stop
         stop-color="#d7ab17"
         offset=".779"
         id="stop542" />
      <stop
         stop-color="#9f6420"
         offset="1"
         id="stop544" />
    </linearGradient>
    <linearGradient
       x1="43.428915"
       y1="26.463612"
       x2="174.13796"
       y2="26.463612"
       id="L"
       gradientTransform="scale(0.84215992,1.1874229)"
       gradientUnits="userSpaceOnUse">
      <stop
         stop-color="#9f6420"
         offset=".02"
         id="stop547" />
      <stop
         stop-color="#ddb115"
         offset=".235"
         id="stop549" />
      <stop
         stop-color="#fff295"
         offset=".526"
         id="stop551" />
      <stop
         stop-color="#d7ab17"
         offset=".779"
         id="stop553" />
      <stop
         stop-color="#9f6420"
         offset="1"
         id="stop555" />
    </linearGradient>
    <linearGradient
       x1="35.927502"
       y1="31.204792"
       x2="144.60266"
       y2="31.204792"
       id="M"
       gradientTransform="scale(1.012775,0.98738613)"
       gradientUnits="userSpaceOnUse">
      <stop
         stop-color="#9f6420"
         offset=".02"
         id="stop558" />
      <stop
         stop-color="#ddb115"
         offset=".235"
         id="stop560" />
      <stop
         stop-color="#fff295"
         offset=".526"
         id="stop562" />
      <stop
         stop-color="#d7ab17"
         offset=".779"
         id="stop564" />
      <stop
         stop-color="#9f6420"
         offset="1"
         id="stop566" />
    </linearGradient>
    <linearGradient
       x1="41.686856"
       y1="25.536905"
       x2="169.03423"
       y2="25.536905"
       id="N"
       gradientTransform="scale(0.86434699,1.1569428)"
       gradientUnits="userSpaceOnUse">
      <stop
         stop-color="#9f6420"
         offset=".02"
         id="stop569" />
      <stop
         stop-color="#ddb115"
         offset=".235"
         id="stop571" />
      <stop
         stop-color="#fff295"
         offset=".526"
         id="stop573" />
      <stop
         stop-color="#d7ab17"
         offset=".779"
         id="stop575" />
      <stop
         stop-color="#9f6420"
         offset="1"
         id="stop577" />
    </linearGradient>
    <linearGradient
       x1="47.973088"
       y1="20.557479"
       x2="196.32326"
       y2="20.557479"
       id="O"
       gradientTransform="scale(0.74199992,1.347709)"
       gradientUnits="userSpaceOnUse">
      <stop
         stop-color="#9f6420"
         offset=".02"
         id="stop580" />
      <stop
         stop-color="#ddb115"
         offset=".235"
         id="stop582" />
      <stop
         stop-color="#fff295"
         offset=".526"
         id="stop584" />
      <stop
         stop-color="#d7ab17"
         offset=".779"
         id="stop586" />
      <stop
         stop-color="#9f6420"
         offset="1"
         id="stop588" />
    </linearGradient>
    <linearGradient
       x1="36.768448"
       y1="24.957259"
       x2="151.64641"
       y2="24.957259"
       id="P"
       gradientTransform="scale(0.95821294,1.0436094)"
       gradientUnits="userSpaceOnUse">
      <stop
         stop-color="#9f6420"
         offset=".02"
         id="stop591" />
      <stop
         stop-color="#ddb115"
         offset=".235"
         id="stop593" />
      <stop
         stop-color="#fff295"
         offset=".526"
         id="stop595" />
      <stop
         stop-color="#d7ab17"
         offset=".779"
         id="stop597" />
      <stop
         stop-color="#9f6420"
         offset="1"
         id="stop599" />
    </linearGradient>
    <linearGradient
       x1="36.371522"
       y1="24.071777"
       x2="151.12364"
       y2="24.071777"
       id="Q"
       gradientTransform="scale(0.95940632,1.0423113)"
       gradientUnits="userSpaceOnUse">
      <stop
         stop-color="#9f6420"
         offset=".02"
         id="stop602" />
      <stop
         stop-color="#ddb115"
         offset=".235"
         id="stop604" />
      <stop
         stop-color="#fff295"
         offset=".526"
         id="stop606" />
      <stop
         stop-color="#d7ab17"
         offset=".779"
         id="stop608" />
      <stop
         stop-color="#9f6420"
         offset="1"
         id="stop610" />
    </linearGradient>
    <linearGradient
       x1="48.757614"
       y1="16.851204"
       x2="204.75901"
       y2="16.851204"
       id="R"
       gradientTransform="scale(0.70556205,1.4173098)"
       gradientUnits="userSpaceOnUse">
      <stop
         stop-color="#9f6420"
         offset=".02"
         id="stop613" />
      <stop
         stop-color="#ddb115"
         offset=".235"
         id="stop615" />
      <stop
         stop-color="#fff295"
         offset=".526"
         id="stop617" />
      <stop
         stop-color="#d7ab17"
         offset=".779"
         id="stop619" />
      <stop
         stop-color="#9f6420"
         offset="1"
         id="stop621" />
    </linearGradient>
    <linearGradient
       x1="40.421846"
       y1="19.909876"
       x2="170.5345"
       y2="19.909876"
       id="S"
       gradientTransform="scale(0.84600477,1.1820264)"
       gradientUnits="userSpaceOnUse">
      <stop
         stop-color="#9f6420"
         offset=".02"
         id="stop624" />
      <stop
         stop-color="#ddb115"
         offset=".235"
         id="stop626" />
      <stop
         stop-color="#fff295"
         offset=".526"
         id="stop628" />
      <stop
         stop-color="#d7ab17"
         offset=".779"
         id="stop630" />
      <stop
         stop-color="#9f6420"
         offset="1"
         id="stop632" />
    </linearGradient>
    <linearGradient
       x1="36.070765"
       y1="22.164671"
       x2="153.40145"
       y2="22.164671"
       id="T"
       gradientTransform="scale(0.93799693,1.0661016)"
       gradientUnits="userSpaceOnUse">
      <stop
         stop-color="#9f6420"
         offset=".02"
         id="stop635" />
      <stop
         stop-color="#ddb115"
         offset=".235"
         id="stop637" />
      <stop
         stop-color="#fff295"
         offset=".526"
         id="stop639" />
      <stop
         stop-color="#d7ab17"
         offset=".779"
         id="stop641" />
      <stop
         stop-color="#9f6420"
         offset="1"
         id="stop643" />
    </linearGradient>
    <linearGradient
       x1="41.382963"
       y1="18.56689"
       x2="178.27963"
       y2="18.56689"
       id="U"
       gradientTransform="scale(0.80415759,1.2435374)"
       gradientUnits="userSpaceOnUse">
      <stop
         stop-color="#9f6420"
         offset=".02"
         id="stop646" />
      <stop
         stop-color="#ddb115"
         offset=".235"
         id="stop648" />
      <stop
         stop-color="#fff295"
         offset=".526"
         id="stop650" />
      <stop
         stop-color="#d7ab17"
         offset=".779"
         id="stop652" />
      <stop
         stop-color="#9f6420"
         offset="1"
         id="stop654" />
    </linearGradient>
    <linearGradient
       x1="35.0262"
       y1="22.378958"
       x2="152.13494"
       y2="22.378958"
       id="V"
       gradientTransform="scale(0.94006872,1.063752)"
       gradientUnits="userSpaceOnUse">
      <stop
         stop-color="#9f6420"
         offset=".02"
         id="stop657" />
      <stop
         stop-color="#ddb115"
         offset=".235"
         id="stop659" />
      <stop
         stop-color="#fff295"
         offset=".526"
         id="stop661" />
      <stop
         stop-color="#d7ab17"
         offset=".779"
         id="stop663" />
      <stop
         stop-color="#9f6420"
         offset="1"
         id="stop665" />
    </linearGradient>
    <linearGradient
       x1="36.032173"
       y1="21.911174"
       x2="157.66087"
       y2="21.911174"
       id="W"
       gradientTransform="scale(0.90485944,1.105144)"
       gradientUnits="userSpaceOnUse">
      <stop
         stop-color="#9f6420"
         offset=".02"
         id="stop668" />
      <stop
         stop-color="#ddb115"
         offset=".235"
         id="stop670" />
      <stop
         stop-color="#fff295"
         offset=".526"
         id="stop672" />
      <stop
         stop-color="#d7ab17"
         offset=".779"
         id="stop674" />
      <stop
         stop-color="#9f6420"
         offset="1"
         id="stop676" />
    </linearGradient>
    <linearGradient
       x1="52.524243"
       y1="14.930408"
       x2="231.65022"
       y2="14.930408"
       id="X"
       gradientTransform="scale(0.61438218,1.6276514)"
       gradientUnits="userSpaceOnUse">
      <stop
         stop-color="#9f6420"
         offset=".02"
         id="stop679" />
      <stop
         stop-color="#ddb115"
         offset=".235"
         id="stop681" />
      <stop
         stop-color="#fff295"
         offset=".526"
         id="stop683" />
      <stop
         stop-color="#d7ab17"
         offset=".779"
         id="stop685" />
      <stop
         stop-color="#9f6420"
         offset="1"
         id="stop687" />
    </linearGradient>
    <linearGradient
       x1="34.526815"
       y1="23.682534"
       x2="153.55841"
       y2="23.682534"
       id="Y"
       gradientTransform="scale(0.92482396,1.0812869)"
       gradientUnits="userSpaceOnUse">
      <stop
         stop-color="#9f6420"
         offset=".02"
         id="stop690" />
      <stop
         stop-color="#ddb115"
         offset=".235"
         id="stop692" />
      <stop
         stop-color="#fff295"
         offset=".526"
         id="stop694" />
      <stop
         stop-color="#d7ab17"
         offset=".779"
         id="stop696" />
      <stop
         stop-color="#9f6420"
         offset="1"
         id="stop698" />
    </linearGradient>
    <linearGradient
       x1="47.697363"
       y1="17.087025"
       x2="213.581"
       y2="17.087025"
       id="Z"
       gradientTransform="scale(0.66350938,1.5071377)"
       gradientUnits="userSpaceOnUse">
      <stop
         stop-color="#9f6420"
         offset=".02"
         id="stop701" />
      <stop
         stop-color="#ddb115"
         offset=".235"
         id="stop703" />
      <stop
         stop-color="#fff295"
         offset=".526"
         id="stop705" />
      <stop
         stop-color="#d7ab17"
         offset=".779"
         id="stop707" />
      <stop
         stop-color="#9f6420"
         offset="1"
         id="stop709" />
    </linearGradient>
    <linearGradient
       x1="34.08303"
       y1="25.023964"
       x2="153.12323"
       y2="25.023964"
       id="aa"
       gradientTransform="scale(0.92465596,1.0814833)"
       gradientUnits="userSpaceOnUse">
      <stop
         stop-color="#9f6420"
         offset=".02"
         id="stop712" />
      <stop
         stop-color="#ddb115"
         offset=".235"
         id="stop714" />
      <stop
         stop-color="#fff295"
         offset=".526"
         id="stop716" />
      <stop
         stop-color="#d7ab17"
         offset=".779"
         id="stop718" />
      <stop
         stop-color="#9f6420"
         offset="1"
         id="stop720" />
    </linearGradient>
    <linearGradient
       x1="32.461887"
       y1="27.177099"
       x2="147.0988"
       y2="27.177099"
       id="ab"
       gradientTransform="scale(0.96015067,1.0415032)"
       gradientUnits="userSpaceOnUse">
      <stop
         stop-color="#9f6420"
         offset=".02"
         id="stop723" />
      <stop
         stop-color="#ddb115"
         offset=".235"
         id="stop725" />
      <stop
         stop-color="#fff295"
         offset=".526"
         id="stop727" />
      <stop
         stop-color="#d7ab17"
         offset=".779"
         id="stop729" />
      <stop
         stop-color="#9f6420"
         offset="1"
         id="stop731" />
    </linearGradient>
    <linearGradient
       x1="31.880075"
       y1="28.748616"
       x2="145.5574"
       y2="28.748616"
       id="ac"
       gradientTransform="scale(0.96832373,1.0327125)"
       gradientUnits="userSpaceOnUse">
      <stop
         stop-color="#9f6420"
         offset=".02"
         id="stop734" />
      <stop
         stop-color="#ddb115"
         offset=".235"
         id="stop736" />
      <stop
         stop-color="#fff295"
         offset=".526"
         id="stop738" />
      <stop
         stop-color="#d7ab17"
         offset=".779"
         id="stop740" />
      <stop
         stop-color="#9f6420"
         offset="1"
         id="stop742" />
    </linearGradient>
    <linearGradient
       x1="35.076713"
       y1="27.657684"
       x2="162.34578"
       y2="27.657684"
       id="ad"
       gradientTransform="scale(0.86495133,1.1561344)"
       gradientUnits="userSpaceOnUse">
      <stop
         stop-color="#9f6420"
         offset=".02"
         id="stop745" />
      <stop
         stop-color="#ddb115"
         offset=".235"
         id="stop747" />
      <stop
         stop-color="#fff295"
         offset=".526"
         id="stop749" />
      <stop
         stop-color="#d7ab17"
         offset=".779"
         id="stop751" />
      <stop
         stop-color="#9f6420"
         offset="1"
         id="stop753" />
    </linearGradient>
    <linearGradient
       x1="30.820816"
       y1="33.018188"
       x2="143.41127"
       y2="33.018188"
       id="ae"
       gradientTransform="scale(0.97766105,1.0228494)"
       gradientUnits="userSpaceOnUse">
      <stop
         stop-color="#9f6420"
         offset=".02"
         id="stop756" />
      <stop
         stop-color="#ddb115"
         offset=".235"
         id="stop758" />
      <stop
         stop-color="#fff295"
         offset=".526"
         id="stop760" />
      <stop
         stop-color="#d7ab17"
         offset=".779"
         id="stop762" />
      <stop
         stop-color="#9f6420"
         offset="1"
         id="stop764" />
    </linearGradient>
    <linearGradient
       x1="27.856566"
       y1="37.91224"
       x2="130.61392"
       y2="37.91224"
       id="af"
       gradientTransform="scale(1.0713607,0.93339249)"
       gradientUnits="userSpaceOnUse">
      <stop
         stop-color="#9f6420"
         offset=".02"
         id="stop767" />
      <stop
         stop-color="#ddb115"
         offset=".235"
         id="stop769" />
      <stop
         stop-color="#fff295"
         offset=".526"
         id="stop771" />
      <stop
         stop-color="#d7ab17"
         offset=".779"
         id="stop773" />
      <stop
         stop-color="#9f6420"
         offset="1"
         id="stop775" />
    </linearGradient>
    <linearGradient
       x1="29.263635"
       y1="38.70585"
       x2="138.21461"
       y2="38.70585"
       id="ag"
       gradientTransform="scale(1.010462,0.98964629)"
       gradientUnits="userSpaceOnUse">
      <stop
         stop-color="#9f6420"
         offset=".02"
         id="stop778" />
      <stop
         stop-color="#ddb115"
         offset=".235"
         id="stop780" />
      <stop
         stop-color="#fff295"
         offset=".526"
         id="stop782" />
      <stop
         stop-color="#d7ab17"
         offset=".779"
         id="stop784" />
      <stop
         stop-color="#9f6420"
         offset="1"
         id="stop786" />
    </linearGradient>
  </defs>
</svg>
