<svg height="256" width="691" xml:space="preserve" viewBox="0 0 1012.8 374" y="0px" x="0px" xmlns:xlink="http://www.w3.org/1999/xlink" xmlns="http://www.w3.org/2000/svg" id="RaazlifeLogo" version="1.1">
<style type="text/css">
	.st0{fill:#302624;}
	.st1{fill:#2E2925;}
	.st2{fill:#888888;}
</style>
<g>
	<path d="M152.3,0c0,57.6,0,115.3,0.1,172.9c0,7.5,0,15,0,22.5c0,2.2-0.4,4.2-1.4,6.2c-6.3,12.2-12.6,24.5-22.4,35.3   c4.3-0.6,7.9-1.2,11.6-1.5c7.9-0.7,15.9-1.2,23.8-1.8c1.4-0.1,2.7,0.1,2.9-2.1c2.3-29.6,3.9-59.1-4-88.2   c-1.7-6.3-0.6-11.2,2.7-16.4c4.4-6.7,9.1-13.2,14.2-20c4,13.4,6,26.6,6.7,40c1.3,23.3-0.7,46.5-2.4,69.8   c-0.4,5.2-0.8,10.4-1.1,15.6c-0.1,2.2-0.4,4.3-1.4,6.2c-4,7.9-8.8,15.4-13.5,23c-1.2,2-3.1,2.6-5.4,2.7   c-13.2,0.6-26.3,1.1-39.5,2.5c-8.1,0.9-8.3,0.7-9,8.6c-0.8,8.9-1.3,17.8-1.9,26.7c-0.2,2.4-0.1,4.8-1.1,7   c-4,8.6-9.2,16.5-14.3,24.5c-1.3,2-3.3,2.3-5.6,2.4c-12.8,0.3-25.7,0.3-38.4,2.2c-8.9,1.3-17.6,3.6-26.3,6.1   c-6.1,1.7-10.1,6-13.3,11.1c-3,4.8-5.9,9.7-9,14.5c-1,1.6-2,3.1-4,4.2c-0.7-2.2,0.4-3.8,1.2-5.2c6.2-11.6,12.4-23.3,19.6-34.3   c6.9-10.5,16.9-17.2,28.3-21.9c2.2-0.9,3.2-2.2,4-4.4c5.6-16.5,14.3-31.2,25.1-44.8c4.6-5.8,10.2-10.7,16.6-14.4   c1.8-1.1,2.3-2.2,2.1-4.3c-1-11.5-2.8-22.9-6.1-33.9c-1-3.3,0.2-6.1,1.7-8.8c4.5-8.1,10.2-15.4,16.1-23.5   c6.2,20.3,7.5,40.6,7.2,61.4c3.9-0.8,7.4-1.6,11-2.4c1.9-0.4,1-1.9,1-2.9c0-29.8,0-59.7,0-89.5c0-34.2,0-68.5,0-102.7   c0-2.2,0-4.3,1-6.3c6.5-12.7,12.9-25.4,22.6-36C151.8,0,152,0,152.3,0z M58.7,309.1c10.6-2.6,20.7-3.8,30.9-4   c6-0.1,6.1-0.2,6.6-6.2c0.7-9,1.4-18,1.3-27c-6.7,1.1-17,5.9-23.3,10.5c-3.1,2.2-5.3,4.7-6,8.7c-0.8,4.2-3.2,7.9-5.4,11.5   C61.5,304.6,60.2,306.5,58.7,309.1z" class="st0"></path>
	<path d="M101.6,157.5c-0.1,3.2-1.2,6.2-2.9,8.9c-4,6.7-9.6,12-15.1,17.5c-1,1-1.7,0.8-2.7,0   c-7.3-5.9-14.9-11.4-21.4-18.2c-6.9-7.2-7-12.3-0.8-20c4-4.9,8.7-9.1,13.2-13.5c0.8-0.8,1.4-1.4,2.7-0.6   c7.6,4.4,15.3,8.6,21.6,14.8C99.2,149.6,101.3,153,101.6,157.5z" class="st0"></path>
</g>
<g>
	<path d="M1012.8,203.5c-2.1,0.9-1.6,3-2,4.6c-6,21.8-23.7,35.9-46.3,37.3c-12.7,0.8-25-1.3-37.2-4.2   c-27.8-6.6-55.2-4-82.7,1.7c-8,1.7-9.2,0.8-9.2-7.2c0-2.5,0-5.1,0-8.4c-7.1,4.6-13.6,8.7-20.8,11.4c-9,3.3-18.2,4.2-27.6,2.9   c-10.3-1.4-16.2-6.1-22.1-17.2c-3.5,2.9-6.7,6.2-10.5,8.6c-29.4,18.7-60.1,19.6-90.6,4.2c-21.5-10.8-30.1-30.9-31.4-54.1   c-2.5-43.7,26.1-74.6,69.9-76.2c23.8-0.9,37.7,3,59.1,16.2c5-31.7-8.9-46.9-34.4-49.6c-18.4-2-36.1,0.9-52.8,8.8   c-5.1,2.4-7.6,1.1-9.4-3.9c-1.8-5-3.8-10-6.1-14.9c-2.3-4.9-0.8-7.4,4-9.7c13.4-6.5,27.4-10.6,42.1-12c18.3-1.7,36.6-1.5,54.2,4.6   c25.6,8.8,41.7,31.2,42.5,60.9c0.7,30,0.3,60,0.4,90.1c0,14.6,3.7,16.8,16.7,10.3c7.8-3.9,7.8-3.9,12.3,3.6c1.3,2.2,2.7,4.3,4.3,7   c39.1-46.3,77.7-92.1,117.3-138.9c-3.1,0-5.2,0-7.2,0c-30,0-60-0.1-90.1,0.1c-5.6,0-7.9-1.5-7.6-7.4c0.4-6.7,0.2-13.5,0.1-20.3   c-0.1-3.9,1.1-5.8,5.4-5.8c49.3,0.1,98.6,0.1,147.9,0c4.2,0,5.7,1.8,5.6,5.7c-0.1,4.6-0.3,9.2,0,13.7c0.3,4.1-1.2,7.1-3.8,10.2   c-35.1,41.4-70.1,82.9-105.1,124.3c-0.7,0.9-1.4,1.8-2.5,3.2c2.7,0.9,4.6-0.3,6.5-0.6c14.6-2.8,28.9-1.1,43,2.8   c5.9,1.6,11.9,3.1,18.1,3.2c12.3,0.2,19.3-4.2,22.4-16c1.6-6,4.8-7.8,10.2-6.5c5.7,1.4,12.5-0.9,17.1,4.5   C1012.8,194.7,1012.8,199.1,1012.8,203.5z M716.7,137.5c-18.8-0.3-33.2,4.2-40.7,20.9c-5.3,11.8-5.1,24-0.4,35.9   c3.4,8.5,9.5,14.9,18.1,17.9c18.6,6.6,36.9,5.6,53.4-6c23.7-16.7,20.4-51-5.8-63.4C732.9,138.8,724,137.5,716.7,137.5z" class="st1"></path>
	<path d="M264.8,61.5c7.4-4.6,14.6-9.4,22.9-12.3c25.3-9.1,40.8-1,47.9,25.9c1.7-2.4,3-4.4,4.4-6.4   c21.4-30.3,58.9-30,80.6-16.9c4,2.4,5,4.8,3.2,9.2c-2.9,6.9-5.2,14.1-7.8,21.2c-1.5,4.1-3.5,5-7.6,2.6   c-22.1-13.1-41.7-7.9-54.4,14.4c-10.7,18.7-15.1,39.2-15.3,60.5c-0.3,25-0.2,50.1,0.1,75.1c0.1,5.8-1.9,7.7-7.5,7.4   c-7.9-0.4-15.9-0.4-23.8,0c-5.8,0.3-7.5-1.8-7.5-7.5c0.2-46.7,0.1-93.4,0.1-140.1c0-3.2,0-6.4-0.4-9.5c-0.8-7.3-3.7-9.2-10.8-8   c-2.6,0.4-5.1,1.3-7.1,3c-4.8,4.1-7.5,2.2-10.1-2.6c-2-3.5-3.4-7.5-6.9-10C264.8,65.5,264.8,63.5,264.8,61.5z" class="st1"></path>
	<path d="M968.7,333.5c-1.5-15.7-0.3-31.4-0.7-47c0-1.8,0.4-3.2,2.6-3.1c6.5,0.2,13.1-0.8,19.6,0.9   c12,3.2,17.8,12.6,16.7,27.1c-0.9,11.4-9.3,19.9-20.8,20.9c-1.8,0.2-4-0.8-5.5,1.2C976.6,333.5,972.7,333.5,968.7,333.5z    M974.8,307.7c0,4.9,0,9.9,0,14.8c0,2.1-0.1,4.2,2.9,4c3.9-0.1,7.9,0.3,11.7-1.1c9.1-3.4,13.3-14,9.8-25   c-2.6-8.2-13.9-13.8-22.4-11.3c-2.2,0.7-2,2.1-2,3.7C974.8,297.8,974.8,302.8,974.8,307.7z" class="st2"></path>
	<path d="M311.3,333.5c-9.1-3.9-11.9-11.4-11.8-20.6c0.1-8.3,0.1-16.7,0-25c0-2.6-0.1-4.6,3.6-4.6   c3.9,0,3.3,2.5,3.3,4.8c0,9.5-0.2,19.1,0.1,28.6c0.3,8.8,6.9,13.3,15.2,10.5c3.9-1.3,6-4.2,6.5-8.4c1.2-9.9,0.2-19.9,0.7-29.8   c0.1-2.2-1.6-5.5,3-5.7c5-0.1,3.2,3.6,3.3,5.9c0.2,7.7-0.3,15.5,0.2,23.2c0.5,9.4-2.3,16.7-11,21   C320,333.5,315.7,333.5,311.3,333.5z" class="st2"></path>
	<path d="M555.8,223.7c-26.5,28.2-70.1,28-96.3,16.1c-20.9-9.5-32.2-26.4-35.4-48.9c-3.5-25.4,1.2-48.3,21.3-66.2   c13.4-11.9,29.5-16.7,47-17.9c21.9-1.5,42.1,3.7,60.7,16.9c0.4-8.9,0.7-16.9-1.4-24.8C548,84.2,536,75.1,518.2,73.4   c-18.2-1.7-35.6,0.8-52.3,8.4c-7,3.1-7.4,2.9-10.4-4.4c-2-5-3.9-10-6.1-14.9c-1.7-3.8-0.9-6.3,3-8.1c31.6-15.2,64.5-18.3,97.9-7.8   c25.4,8,37.6,27.7,41.5,53.2c1.9,12.5,1.1,25,1.1,37.5c0.1,20.9,0,41.8,0.1,62.6c0,11,3.6,13.2,13.6,8.9c11-4.8,11-4.8,17.2,5.6   c5.7,9.5,5.4,11.1-4,17c-11,6.9-22.7,11.2-36,10.5C571.1,241.4,560.8,237.2,555.8,223.7z M507.2,137.5c-26.8-0.3-41,11.3-43.9,34.3   c-2.2,17.2,5.5,34,19.9,39.8c19.4,7.9,38.7,6.7,55.9-6.1c22.1-16.6,19-49-5.5-61.8C524.7,139,515.2,137.5,507.2,137.5z" class="st1"></path>
	<path d="M408.8,293.9c0,11,0.1,22.1,0,33.1c0,2.3,1.2,5.5-3.2,5.5c-4.4,0-3.3-3.1-3.3-5.4c-0.1-12.3-0.1-24.6,0.1-36.9   c0-2.3-2.1-6.1,2.4-6.7c3.9-0.6,7.5-0.6,9.6,4.4c3.7,8.5,8.3,16.7,12.5,25c0.9,1.7,1.8,3.3,2.8,5.1c2.4-1.5,1.5-3.5,1.5-5   c0.1-8.7,0.1-17.5,0-26.2c0-2.6,1-3.5,3.5-3.4c2.4,0,3,1.2,3,3.3c0,14.1,0,28.2,0,42.3c0,1.6,0.2,3.4-2.1,3.5   c-2.7,0.1-5.3,0.6-7-2.8c-5.1-10.3-10.5-20.5-15.7-30.7c-0.9-1.7-1.8-3.5-2.7-5.2C409.6,293.8,409.2,293.8,408.8,293.9z" class="st2"></path>
	<path d="M603.2,307.3c0-6.4,0.1-12.7-0.1-19.1c-0.1-3.4,0.6-5.1,4.5-4.9c7.3,0.3,14.7,0.1,22,0.1c2,0,4-0.1,4,2.9   c0,2.9-1.7,3.1-3.9,3.1c-4.4,0-8.8,0.4-13.1-0.1c-5.6-0.6-7.4,1.1-7.4,7c0.1,5.5,1.8,6.8,6.8,6.3c4.1-0.4,8.3,0,12.5-0.1   c2.5-0.1,3.6,0.6,3.6,3.3c-0.1,2.7-1.7,2.7-3.6,2.7c-5,0-9.9-0.1-14.9,0c-1.4,0-3.8-0.7-3.9,1.5c-0.3,4.9-0.3,9.9,0,14.9   c0.1,2.2,2.4,1.6,3.9,1.6c5.4,0.1,10.7,0.1,16.1,0c2.2,0,3.9,0.2,3.9,3.1c0,3-2.1,2.9-4.1,2.9c-7.3,0-14.7-0.1-22,0.1   c-3.3,0.1-4.6-1-4.5-4.4C603.4,321.2,603.2,314.2,603.2,307.3z" class="st2"></path>
	<path d="M888.1,283.4c4,0,7.9,0,11.9,0c2.1,0,3.4,0.5,3.4,3c0,2.4-1.2,3-3.4,3c-5.4-0.1-10.7,0.2-16.1-0.1   c-3.6-0.2-4.9,0.9-4.8,4.7c0.3,10.6-0.7,8.4,8.5,8.6c3.8,0.1,7.5,0.1,11.3,0c2,0,2.8,0.7,2.9,2.8c0.1,2.2-0.6,3.3-3,3.2   c-5.2-0.1-10.3,0.1-15.5-0.1c-3-0.1-4.1,0.8-4.2,4c-0.6,14.1-0.7,14.1,13.2,14.1c2.6,0,5.2,0.1,7.7,0c2.2-0.1,3.3,0.8,3.2,3.1   c0,2-1,2.8-2.9,2.8c-8.1,0-16.3-0.1-24.4,0c-2.8,0-3.2-1.6-3.2-3.8c0-13.9,0.1-27.8,0-41.7c0-3,1.3-3.7,4-3.6   C880.6,283.5,884.4,283.4,888.1,283.4z" class="st2"></path>
	<path d="M500,284c5.3-1.7,7.5,0,8.9,4.6c3.4,11.3,7.4,22.5,11.7,35.1c4.2-12.4,7.8-23.4,11.5-34.4   c0.5-1.5,0.9-3.1,1.6-4.5c1.2-2.3,3.6-1.6,5.3-1.2c2.7,0.6,0.9,2.5,0.5,3.8c-4.7,13.9-9.6,27.7-14.2,41.6c-0.8,2.4-1.8,3.6-4.5,3.6   c-2.8,0-4.4-0.7-5.3-3.5C510.4,314.1,505.2,299.1,500,284z" class="st2"></path>
	<path d="M781.4,307.7c0-6.1-0.1-12.3,0.1-18.4c0.1-2.3-1.8-5.9,3.2-6c5.3-0.1,3.5,3.8,3.6,6.3c0.2,10.5,0.2,21,0,31.5   c-0.1,4.1,1,5.8,5.3,5.4c4.3-0.3,8.7,0,13.1-0.1c2,0,3.4,0.2,3.5,2.8c0.1,2.9-1.4,3.2-3.7,3.2c-7.1-0.1-14.3-0.1-21.4,0   c-3,0.1-3.7-1.3-3.6-3.9C781.5,321.6,781.4,314.7,781.4,307.7z" class="st2"></path>
	<path d="M702.8,308.5c0-4.4,0.1-8.7,0-13.1c-0.1-3.2,1.6-7.6-4.6-7.3c-1.6,0.1-1.5-1.5-1.5-2.7c0-1.1,0.4-2,1.7-2   c5.2,0,10.3,0,15.5,0c1.5,0,1.9,1,1.9,2.4c0,1.8-0.8,2.6-2.5,2.5c-3.6-0.3-3.6,2-3.6,4.5c0.1,10.1,0.1,20.2,0,30.3   c0,2.7,0.2,4.8,3.7,4.4c1.7-0.2,2.4,0.8,2.4,2.5c0,1.9-1.1,2.3-2.7,2.3c-4.4,0-8.7,0-13.1,0c-1.6,0-3.2,0.2-3.4-2.2   c-0.1-2.1,0.9-2.9,2.8-2.7c3.3,0.3,3.3-1.8,3.3-4.2C702.8,318.4,702.8,313.4,702.8,308.5z" class="st2"></path>
</g>
</svg>